<svg width="696" height="318" viewBox="0 0 696 318" fill="none" xmlns="http://www.w3.org/2000/svg">
<path d="M121.611 181.065C121.611 181.901 121.611 182.904 121.611 184.074C121.778 185.077 121.694 185.996 121.36 186.832C121.861 188.504 121.861 190.092 121.36 191.597C121.025 192.934 120.691 194.522 120.357 196.361C121.025 197.531 121.109 198.618 120.607 199.621C120.106 200.624 119.437 201.46 118.601 202.129C118.601 203.132 118.351 203.884 117.849 204.386C117.515 204.887 117.18 205.472 116.846 206.141C116.679 208.314 116.261 209.819 115.592 210.655C114.924 211.323 114.255 212.076 113.586 212.912C113.419 214.249 113.252 215.503 113.085 216.673C112.917 217.843 112.499 218.846 111.831 219.682C111.664 220.518 111.58 221.27 111.58 221.939C111.747 222.608 111.58 223.109 111.079 223.444C110.577 223.611 110.075 223.778 109.574 223.945C109.24 223.945 108.738 223.862 108.069 223.694C107.233 224.029 106.565 224.53 106.063 225.199C105.562 225.7 104.893 226.202 104.057 226.703C104.224 228.542 104.057 229.545 103.556 229.713C103.221 229.88 102.803 230.131 102.302 230.465C101.967 231.134 101.55 231.719 101.048 232.22C100.546 232.722 100.296 233.474 100.296 234.477C99.7942 234.811 99.2927 235.229 98.7912 235.731C98.4568 236.232 98.0389 236.65 97.5373 236.985C97.0358 238.322 96.2835 239.325 95.2805 239.994C93.4416 239.994 92.4385 240.161 92.2713 240.495C92.1042 240.663 91.8534 240.913 91.5191 241.248C90.6832 241.582 89.7637 241.916 88.7607 242.251C87.7576 242.585 86.671 242.836 85.5008 243.003C84.1634 243.003 83.1603 243.254 82.4916 243.755C81.8229 244.424 80.8199 244.758 79.4825 244.758C78.6466 243.755 78.0615 243.337 77.7271 243.505C77.56 243.839 77.2256 244.173 76.7241 244.508C75.3867 244.508 74.3836 244.926 73.7149 245.761C73.2134 246.597 72.3775 247.182 71.2073 247.517C70.3714 247.517 69.7863 247.266 69.452 246.764C69.2848 246.43 69.034 246.096 68.6997 245.761C66.8608 246.764 65.9413 247.684 65.9413 248.52C66.1085 249.356 65.7741 249.941 64.9383 250.275C63.768 250.108 62.8486 249.69 62.1799 249.021C61.5112 248.52 60.7589 248.102 59.923 247.768C58.92 247.935 58.0005 248.185 57.1646 248.52C56.4959 249.021 55.4929 249.188 54.1555 249.021C51.815 248.185 50.3941 248.018 49.8925 248.52C49.5582 249.021 49.0567 249.188 48.388 249.021C47.5521 249.021 46.967 248.687 46.6326 248.018C46.2983 247.517 45.7132 247.015 44.8773 246.514C42.704 246.681 41.3666 246.096 40.8651 244.758C40.1964 244.758 39.6113 244.758 39.1098 244.758C38.7754 244.926 38.4411 245.009 38.1067 245.009C36.1006 244.173 34.3453 243.588 32.8407 243.254C31.3361 243.087 29.9151 242.752 28.5777 242.251C27.7419 241.415 27.0732 240.328 26.5716 238.991C26.2373 237.653 25.9029 236.316 25.5686 234.979C24.7327 233.474 24.064 232.973 23.5625 233.474C23.061 233.808 22.3923 233.976 21.5564 233.976C20.7205 233.808 19.9682 233.056 19.2995 231.719C17.6278 230.214 16.4576 228.626 15.7889 226.954C15.1202 225.282 14.0335 223.778 12.529 222.441C11.5259 220.434 10.1885 218.679 8.51677 217.175C7.0122 215.503 5.42403 213.831 3.75229 212.159C3.08359 210.822 2.83283 209.317 3 207.646C3 205.807 2.3313 204.469 0.993902 203.633C0.325203 202.63 0.910315 201.794 2.74924 201.126C4.42099 200.29 5.59121 199.203 6.25991 197.866C8.09883 196.696 9.51982 196.194 10.5229 196.361C11.6931 196.528 12.7797 196.278 13.7828 195.609C14.2843 193.77 14.7858 192.851 15.2873 192.851C15.956 192.683 16.5412 192.349 17.0427 191.848C18.2129 189.674 18.9652 188.337 19.2995 187.835C19.8011 187.167 20.219 186.582 20.5534 186.08C21.5564 184.743 22.7266 183.572 24.064 182.569C25.5686 180.73 26.7388 179.309 27.5747 178.306C28.4106 177.303 29.2464 176.3 30.0823 175.297C31.5869 174.294 32.9243 173.709 34.0945 173.542C34.9304 174.378 35.5991 174.796 36.1006 174.796C36.7693 174.796 37.5216 175.214 38.3575 176.05C37.6888 178.724 36.2678 180.312 34.0945 180.814C34.0945 181.483 33.9273 182.151 33.593 182.82C33.4258 183.489 33.5094 184.157 33.8437 184.826C34.1781 185.328 34.4289 185.913 34.596 186.582C34.7632 187.083 35.014 187.585 35.3483 188.086C35.1811 188.588 35.014 189.089 34.8468 189.591C34.6796 190.092 34.1781 190.51 33.3422 190.844C33.5094 191.68 33.3422 192.349 32.8407 192.851C32.5064 193.352 32.4228 194.021 32.5899 194.857C32.9243 195.693 33.2586 196.445 33.593 197.114C34.0945 197.782 34.5124 198.535 34.8468 199.37C35.5155 201.711 35.5155 203.383 34.8468 204.386C34.3453 205.222 33.9273 205.974 33.593 206.643C33.9273 207.311 34.3453 207.896 34.8468 208.398C35.3483 208.732 35.7663 209.15 36.1006 209.652C36.6021 210.32 37.5216 211.156 38.859 212.159C41.701 211.992 43.6235 212.577 44.6265 213.915C45.6296 215.252 46.2983 217.091 46.6326 219.431C46.967 219.599 47.3849 219.599 47.8864 219.431C48.388 219.097 49.0567 218.93 49.8925 218.93C51.5643 218.763 53.1524 218.93 54.657 219.431C57.3318 218.93 58.8364 218.93 59.1707 219.431C59.6723 219.766 60.341 220.016 61.1768 220.184C62.1799 219.849 62.8486 219.348 63.1829 218.679C63.6845 218.01 64.3532 217.509 65.189 217.175C66.0249 217.175 66.61 217.258 66.9444 217.425C67.2787 217.592 67.8638 217.76 68.6997 217.927C69.5356 218.094 69.9535 218.345 69.9535 218.679C69.9535 219.013 70.3714 219.181 71.2073 219.181C72.0432 219.013 72.7119 218.763 73.2134 218.428C73.8821 218.094 74.6344 217.843 75.4703 217.676C76.3061 217.342 76.9748 216.924 77.4764 216.422C77.9779 215.921 78.7302 215.67 79.7332 215.67C80.2348 213.497 80.5691 211.909 80.7363 210.905C80.9035 209.902 81.3214 209.234 81.9901 208.899C83.3275 207.562 84.1634 206.475 84.4977 205.639C84.8321 204.636 85.1664 203.717 85.5008 202.881C87.3397 201.377 88.3427 199.956 88.5099 198.618C88.8443 197.114 89.0114 195.693 89.0114 194.355C89.6801 192.683 90.1817 191.012 90.516 189.34C91.0175 187.668 91.4355 185.913 91.7698 184.074C91.6026 182.402 91.6862 181.065 92.0206 180.062C91.0175 179.059 90.6832 177.638 91.0175 175.799C89.6801 174.796 89.0114 173.876 89.0114 173.04C89.0114 172.204 88.9278 171.536 88.7607 171.034C87.9248 170.198 87.0889 169.363 86.253 168.527C85.5843 167.691 85.0828 166.688 84.7485 165.518C83.0767 165.016 81.8229 164.013 80.987 162.508C80.3183 163.01 79.4825 163.261 78.4794 163.261C77.6435 163.093 76.9748 162.676 76.4733 162.007C75.1359 161.672 74.0493 161.338 73.2134 161.004C72.3775 160.502 71.1237 160.419 69.452 160.753C68.6161 160.084 68.1146 159.499 67.9474 158.998C67.9474 158.496 67.8638 157.827 67.6966 156.992C67.0279 156.657 66.1085 156.574 64.9383 156.741C63.9352 156.908 62.8486 156.824 61.6784 156.49C61.0097 156.156 60.341 155.905 59.6723 155.738C59.1707 155.403 58.502 155.236 57.6662 155.236C56.8303 154.4 55.7436 153.899 54.4062 153.732C53.236 153.397 52.3166 152.812 51.6479 151.976C49.6418 150.472 47.97 149.552 46.6326 149.218C45.2952 148.884 43.9578 148.549 42.6204 148.215C41.6174 147.546 40.7815 147.045 40.1128 146.71C37.9395 147.379 36.6021 147.63 36.1006 147.463C35.7663 147.295 35.2647 147.128 34.596 146.961C34.0945 146.627 33.6766 146.376 33.3422 146.209C33.0079 145.874 32.5899 145.624 32.0884 145.457C31.2525 144.286 30.1659 143.283 28.8285 142.447C27.6583 141.444 26.6552 140.274 25.8194 138.937C25.3178 138.602 24.8163 138.268 24.3148 137.934C23.9804 137.432 23.6461 137.014 23.3117 136.68C21.4728 136.178 19.8847 135.51 18.5473 134.674C18.0457 132.166 17.6278 130.327 17.2934 129.157C16.9591 127.987 16.8755 126.649 17.0427 125.145C16.5412 124.643 15.956 124.225 15.2873 123.891C14.6186 123.557 14.1171 122.972 13.7828 122.136C13.9499 120.631 13.6156 119.544 12.7797 118.876C12.111 118.04 11.6095 117.12 11.2752 116.117C11.6095 115.616 11.8603 115.114 12.0274 114.613C12.1946 113.944 12.3618 113.359 12.529 112.857C12.0274 111.52 11.6931 110.099 11.5259 108.594C11.3587 107.09 11.5259 105.502 12.0274 103.83C12.0274 102.158 12.0274 101.155 12.0274 100.821C12.0274 100.487 12.1946 100.152 12.529 99.8178C12.529 99.1491 12.4454 98.564 12.2782 98.0625C12.2782 97.3938 12.2782 96.8087 12.2782 96.3071C12.2782 95.4713 12.3618 94.6354 12.529 93.7995C12.6961 92.9636 12.9469 92.1278 13.2812 91.2919C14.953 89.2858 15.956 87.5305 16.2904 86.0259C16.7919 84.5213 17.5442 83.3511 18.5473 82.5152C19.3831 80.3419 20.3862 78.503 21.5564 76.9985C22.8938 75.3267 24.2312 73.7385 25.5686 72.234C27.0732 71.5653 27.9926 70.813 28.327 69.9771C28.8285 69.1412 29.5808 68.5561 30.5838 68.2218C32.4228 68.0546 33.4258 67.6367 33.593 66.968C33.9273 66.1321 34.5124 65.4634 35.3483 64.9619C36.6857 65.2962 37.7724 65.2126 38.6082 64.7111C39.4441 64.2096 40.5307 63.8752 41.8681 63.7081C43.5399 62.705 45.0445 61.4512 46.3819 59.9466C47.2177 59.9466 47.8864 60.1138 48.388 60.4481C49.0567 60.6153 49.6418 60.7825 50.1433 60.9497C51.4807 59.9466 52.233 59.4451 52.4002 59.4451C52.7345 59.2779 52.9853 59.1107 53.1524 58.9436C54.3227 58.1077 55.3257 57.6062 56.1616 57.439C57.1646 57.2718 57.9169 57.1882 58.4184 57.1882C59.923 57.3554 60.8425 57.2718 61.1768 56.9375C61.5112 56.6031 62.0127 56.436 62.6814 56.436C63.3501 56.6031 63.768 56.7703 63.9352 56.9375C64.2696 56.9375 64.8547 56.7703 65.6905 56.436C67.5295 56.7703 68.8669 57.1047 69.7027 57.439C70.5386 57.6062 71.5417 57.6062 72.7119 57.439C73.2134 57.9405 73.9657 58.5256 74.9687 59.1943C75.6374 58.86 76.2226 58.5256 76.7241 58.1913C77.3928 57.6898 78.0615 57.1882 78.7302 56.6867C79.3989 56.3524 80.0676 55.9344 80.7363 55.4329C81.405 54.9314 82.1573 55.0986 82.9931 55.9344C83.3275 56.6031 83.3275 57.2718 82.9931 57.9405C82.6588 58.4421 82.5752 59.1107 82.7424 59.9466C84.0798 60.9497 85.25 61.702 86.253 62.2035C87.2561 62.5378 88.1756 63.1229 89.0114 63.9588C90.516 64.6275 91.3519 65.2126 91.5191 65.7142C91.8534 66.2157 92.1878 66.6336 92.5221 66.968C93.358 66.8008 94.0267 66.6336 94.5282 66.4664C95.1969 66.2993 95.9492 66.1321 96.7851 65.9649C98.7912 66.1321 99.627 67.5531 99.2927 70.2279C100.129 70.7294 100.881 71.2309 101.55 71.7324C102.218 72.0668 102.887 72.5683 103.556 73.237C106.565 73.5714 108.487 74.4908 109.323 75.9954C108.989 77.6672 108.822 78.5866 108.822 78.7538C110.661 79.4225 111.747 79.924 112.082 80.2584C112.416 80.4255 112.75 80.6763 113.085 81.0106C113.085 82.1809 112.917 82.9332 112.583 83.2675C112.416 83.4347 112.249 83.769 112.082 84.2706L114.589 86.2767C115.425 86.7782 115.927 87.2797 116.094 87.7812C116.428 88.1156 116.93 88.2828 117.598 88.2828C118.434 89.7873 118.769 90.7068 118.601 91.0411C118.601 91.2083 118.769 91.4591 119.103 91.7934C116.595 92.9636 114.506 94.4682 112.834 96.3071C111.998 97.4774 111.496 98.3132 111.329 98.8148C111.329 99.1491 111.162 99.4835 110.828 99.8178C109.992 100.821 109.574 101.49 109.574 101.824C109.574 102.158 109.658 102.493 109.825 102.827C109.323 103.663 108.822 104.332 108.32 104.833C107.819 105.335 107.401 105.92 107.066 106.588C106.732 107.926 106.314 108.929 105.812 109.598C104.977 109.932 104.224 110.35 103.556 110.851C102.887 111.353 102.135 111.687 101.299 111.854C101.299 112.69 101.299 113.443 101.299 114.111C101.466 114.613 101.299 115.281 100.797 116.117C99.4599 116.953 98.4568 118.374 97.7881 120.38C96.2835 121.383 95.4477 122.136 95.2805 122.637C95.2805 123.139 95.1133 123.724 94.779 124.393C93.1072 125.563 91.8534 126.148 91.0175 126.148C90.1817 125.981 89.513 125.563 89.0114 124.894C89.0114 123.055 89.0114 121.718 89.0114 120.882C90.1817 119.544 90.9339 118.374 91.2683 117.371C90.5996 116.034 90.516 114.947 91.0175 114.111C91.0175 112.607 91.1847 111.854 91.5191 111.854C91.8534 111.687 92.0206 111.52 92.0206 111.353C91.1847 109.514 90.6832 108.511 90.516 108.344C90.3488 108.177 90.0981 108.009 89.7637 107.842C89.2622 106.505 88.8443 105.753 88.5099 105.585C88.3427 105.418 88.2591 105.084 88.2591 104.582C87.9248 102.911 87.5904 101.907 87.2561 101.573C87.0889 101.072 87.0053 100.57 87.0053 100.069C87.3397 98.7312 87.5069 97.8953 87.5069 97.561C87.5069 97.0594 87.3397 96.6415 87.0053 96.3071C86.5038 95.9728 86.0023 95.8892 85.5008 96.0564C85.1664 96.2236 84.7485 96.14 84.247 95.8056C83.5783 95.1369 83.2439 94.5518 83.2439 94.0503C83.4111 93.5488 83.3275 93.0472 82.9931 92.5457C83.829 91.7098 84.247 90.874 84.247 90.0381C83.5783 89.7037 82.9931 89.6202 82.4916 89.7873C82.1573 89.7873 81.8229 89.6202 81.4886 89.2858C79.984 87.6141 79.1481 86.3602 78.9809 85.5244C78.4794 85.5244 78.0615 85.6915 77.7271 86.0259C77.3928 86.1931 76.8913 86.1931 76.2226 86.0259C74.5508 84.8557 73.3806 84.3541 72.7119 84.5213C72.2104 84.5213 71.5417 84.5213 70.7058 84.5213C68.5325 84.0198 66.8608 83.5183 65.6905 83.0167C64.5203 82.5152 64.0188 81.5122 64.186 80.0076C63.8516 80.1748 63.5173 80.5927 63.1829 81.2614C62.8486 81.7629 62.5142 82.1809 62.1799 82.5152C61.0097 82.6824 59.8394 82.766 58.6692 82.766C57.6662 82.766 56.4959 82.8496 55.1585 83.0167C54.4898 83.3511 53.9047 83.769 53.4032 84.2706C52.9017 84.6049 52.3166 84.9393 51.6479 85.2736C50.9792 85.9423 50.3941 86.6946 49.8925 87.5305C49.5582 88.1992 49.0567 88.7843 48.388 89.2858C47.0506 89.6202 46.0475 89.9545 45.3788 90.2888C45.3788 90.9575 45.3788 91.6262 45.3788 92.2949C45.546 92.7965 45.3788 93.2144 44.8773 93.5488C42.704 94.3846 41.701 95.6384 41.8681 97.3102C42.2025 98.9819 42.2025 100.487 41.8681 101.824C41.1994 102.827 40.9487 103.496 41.1159 103.83C41.283 103.997 41.283 104.415 41.1159 105.084C40.1128 106.254 39.6113 107.257 39.6113 108.093C39.7785 109.263 40.3636 110.183 41.3666 110.851C42.0353 111.019 42.8712 111.436 43.8742 112.105C43.7071 112.941 43.7071 113.86 43.8742 114.864C44.0414 115.699 44.2086 116.619 44.3758 117.622C45.546 118.291 46.2983 119.544 46.6326 121.383C47.97 121.551 48.8059 122.136 49.1402 123.139C49.4746 123.975 49.9761 124.727 50.6448 125.396C52.9853 125.563 54.5734 125.897 55.4093 126.399C56.2452 126.9 57.1646 127.402 58.1677 127.903C59.0036 127.903 59.5887 127.82 59.923 127.652C60.4245 127.318 61.0097 127.151 61.6784 127.151C62.5142 127.987 63.4337 128.655 64.4367 129.157C65.4398 129.491 66.3592 130.076 67.1951 130.912C68.6997 131.247 70.1207 131.581 71.4581 131.915C72.9627 132.25 74.3001 132.751 75.4703 133.42C75.9718 133.42 76.3897 133.42 76.7241 133.42C77.2256 133.253 77.7271 133.253 78.2287 133.42C79.0645 133.587 79.7332 134.005 80.2348 134.674C80.7363 135.175 81.2378 135.593 81.7393 135.928C83.5783 135.76 84.7485 136.095 85.25 136.931C85.9187 137.599 86.671 138.268 87.5069 138.937C88.1756 139.104 89.2622 139.187 90.7668 139.187C92.6057 140.358 93.8595 140.943 94.5282 140.943C95.1969 140.776 95.782 140.776 96.2835 140.943C96.7851 141.277 97.203 141.612 97.5373 141.946C97.8717 142.113 98.206 142.364 98.5404 142.698C100.379 143.367 101.382 143.952 101.55 144.453C101.717 144.788 101.967 145.122 102.302 145.457C103.639 145.457 104.809 145.958 105.812 146.961C105.98 147.797 106.23 148.466 106.565 148.967C107.066 149.469 107.484 150.054 107.819 150.723C108.654 150.723 109.24 150.973 109.574 151.475C110.075 151.976 110.493 152.394 110.828 152.729C110.995 153.397 111.162 153.982 111.329 154.484C111.496 154.985 111.58 155.654 111.58 156.49C111.914 157.326 112.332 158.078 112.834 158.747C113.503 159.248 114.004 160.001 114.338 161.004C115.007 161.84 115.676 162.508 116.345 163.01C117.013 163.511 117.431 164.347 117.598 165.518C118.434 167.858 119.103 169.363 119.604 170.031C120.273 170.533 120.44 171.619 120.106 173.291C120.273 174.963 120.273 176.217 120.106 177.053C120.106 177.888 119.939 178.724 119.604 179.56L121.611 181.065ZM249.248 92.0442C249.583 93.8831 249.583 95.0533 249.248 95.5549C248.914 96.0564 248.58 96.4743 248.245 96.8087H244.986C244.317 98.6476 243.565 99.5671 242.729 99.5671C242.06 99.5671 241.558 99.8178 241.224 100.319C240.221 100.654 239.636 100.988 239.469 101.322C239.469 101.49 239.302 101.74 238.967 102.075C237.797 103.078 236.961 103.746 236.46 104.081C235.958 104.415 235.707 105 235.707 105.836C235.373 106.17 234.788 106.421 233.952 106.588C233.283 106.756 232.698 106.923 232.197 107.09C231.528 110.266 230.859 112.272 230.191 113.108C229.522 113.777 229.02 114.696 228.686 115.867C228.853 117.538 229.188 118.541 229.689 118.876C230.191 119.21 230.608 119.544 230.943 119.879C230.608 121.049 230.191 121.718 229.689 121.885C229.355 121.885 229.02 122.052 228.686 122.386C228.686 123.055 228.77 123.64 228.937 124.142C229.271 124.476 229.522 124.978 229.689 125.646C229.689 126.984 229.355 127.987 228.686 128.655C228.017 129.157 227.767 130.076 227.934 131.414C229.271 133.253 229.773 134.423 229.438 134.925C229.104 135.259 228.853 135.677 228.686 136.178C230.023 138.184 230.525 139.438 230.191 139.94C229.856 140.274 229.522 140.692 229.188 141.194C229.689 143.2 229.773 144.37 229.438 144.704C229.271 144.871 229.104 145.122 228.937 145.457C229.438 147.63 229.355 148.884 228.686 149.218C228.184 149.385 227.683 149.636 227.181 149.97C228.017 150.639 228.686 151.224 229.188 151.726C229.856 152.227 230.358 152.896 230.692 153.732C230.525 154.568 230.608 155.236 230.943 155.738C231.277 156.239 231.361 156.908 231.194 157.744C231.194 158.245 231.026 158.663 230.692 158.998C230.358 159.332 230.107 159.75 229.94 160.252C230.107 160.753 230.274 161.255 230.441 161.756C230.776 162.258 230.859 162.759 230.692 163.261C229.689 165.267 229.271 166.604 229.438 167.273C229.605 167.774 229.522 168.359 229.188 169.028C229.355 169.53 229.689 170.031 230.191 170.533C230.692 171.034 230.943 171.787 230.943 172.79C231.11 173.96 230.776 175.297 229.94 176.802C229.94 177.638 230.107 178.306 230.441 178.808C230.776 179.309 231.11 179.978 231.444 180.814C231.277 181.65 230.943 182.235 230.441 182.569C229.94 182.904 229.438 183.238 228.937 183.572C228.937 185.578 228.937 187.167 228.937 188.337C228.937 189.34 228.602 190.092 227.934 190.594C228.268 190.928 228.686 191.513 229.188 192.349C229.689 193.018 229.605 193.77 228.937 194.606C229.438 195.107 230.023 195.525 230.692 195.86C231.361 196.194 231.862 196.779 232.197 197.615C232.197 198.952 231.612 199.705 230.441 199.872C230.608 201.042 230.608 201.794 230.441 202.129C230.274 202.296 230.107 202.547 229.94 202.881C230.274 203.717 230.441 204.887 230.441 206.392C230.608 207.896 230.274 208.816 229.438 209.15C229.438 210.655 229.522 211.491 229.689 211.658C230.023 211.825 230.107 212.076 229.94 212.41C229.605 213.246 229.104 213.831 228.435 214.165C227.767 214.333 227.265 214.75 226.931 215.419C226.596 216.088 226.513 216.84 226.68 217.676C226.847 218.345 226.763 219.013 226.429 219.682C226.931 221.354 227.349 222.357 227.683 222.691C228.184 223.026 228.602 223.444 228.937 223.945C228.77 224.781 228.853 226.035 229.188 227.707C228.352 228.877 227.934 230.214 227.934 231.719C227.934 233.056 227.599 234.31 226.931 235.48C227.265 237.152 227.516 237.988 227.683 237.988C228.017 237.988 228.352 238.155 228.686 238.489C228.686 239.66 228.101 240.412 226.931 240.746C225.76 241.081 225.008 240.663 224.674 239.492C223.838 239.66 223.086 239.994 222.417 240.495C221.748 240.83 220.996 240.83 220.16 240.495C218.154 241.164 216.817 241.081 216.148 240.245C215.814 240.412 215.228 240.746 214.393 241.248C213.724 241.749 213.055 241.916 212.386 241.749C211.049 241.081 209.962 240.913 209.127 241.248C208.458 241.415 207.706 241.582 206.87 241.749C206.201 241.916 205.532 242 204.864 242C204.362 241.833 203.861 241.415 203.359 240.746C203.861 239.743 203.777 238.907 203.108 238.239C202.607 237.403 202.607 236.316 203.108 234.979C202.105 233.808 201.604 233.056 201.604 232.722C201.771 232.22 201.771 231.719 201.604 231.217C201.102 231.05 200.517 230.966 199.848 230.966C199.347 230.966 199.012 230.632 198.845 229.963C198.678 228.292 198.093 227.289 197.09 226.954C196.588 226.118 196.254 225.199 196.087 224.196C195.92 223.026 195.669 221.939 195.335 220.936C193.161 219.766 192.576 218.512 193.579 217.175C193.245 216.84 192.994 216.339 192.827 215.67C192.827 215.001 192.66 214.416 192.325 213.915C191.322 211.741 190.487 210.153 189.818 209.15C187.645 207.98 186.224 207.06 185.555 206.392C185.221 205.556 185.221 204.887 185.555 204.386C185.889 203.717 185.889 202.881 185.555 201.878C184.385 200.541 183.716 199.37 183.549 198.367C183.382 197.364 182.964 196.528 182.295 195.86C180.289 193.686 179.537 191.346 180.038 188.838C178.701 187.334 177.781 186.414 177.28 186.08C176.778 185.746 176.527 185.161 176.527 184.325C177.029 183.489 177.614 183.322 178.283 183.823C178.951 184.325 179.453 184.743 179.787 185.077C180.456 182.737 180.289 181.566 179.286 181.566C178.283 181.566 177.614 181.065 177.28 180.062C176.778 178.724 176.193 177.972 175.524 177.805C174.856 177.471 174.354 177.053 174.02 176.551C173.518 175.715 173.268 174.629 173.268 173.291C173.268 171.787 173.435 170.533 173.769 169.53C172.432 167.858 171.847 166.688 172.014 166.019C172.181 165.183 172.432 164.514 172.766 164.013C172.432 163.177 171.847 162.759 171.011 162.759C170.175 162.592 169.84 161.923 170.008 160.753C169.172 160.753 168.419 160.753 167.751 160.753C167.082 160.753 166.581 160.586 166.246 160.252C166.079 161.255 166.246 161.923 166.748 162.258C167.249 162.425 167.584 162.926 167.751 163.762C167.249 165.601 167.166 166.688 167.5 167.022C167.834 167.189 168.002 167.607 168.002 168.276C167.667 168.945 167.249 169.446 166.748 169.78C166.413 170.115 166.079 170.449 165.745 170.784C165.577 172.288 165.745 173.458 166.246 174.294C166.915 175.13 167.082 176.217 166.748 177.554C166.915 178.223 167.166 178.891 167.5 179.56C167.834 180.229 168.085 180.981 168.252 181.817C168.419 182.653 168.419 183.405 168.252 184.074C168.085 184.743 168.169 185.411 168.503 186.08C167.834 186.582 167.5 187.585 167.5 189.089C167.5 190.427 167.834 191.346 168.503 191.848C169.506 192.182 170.509 192.433 171.512 192.6C172.682 192.767 173.1 193.603 172.766 195.107C172.097 195.943 171.261 196.696 170.258 197.364C169.255 197.866 168.67 198.869 168.503 200.373C168.336 202.38 168.252 203.801 168.252 204.636C168.252 205.305 168.252 206.225 168.252 207.395C167.751 207.896 167.249 208.314 166.748 208.649C166.246 208.983 165.828 209.401 165.494 209.902C165.995 212.076 166.413 213.329 166.748 213.664C167.082 213.831 167.333 214.165 167.5 214.667C167.333 217.007 167.082 218.679 166.748 219.682C166.915 222.691 167.249 224.948 167.751 226.453C168.419 227.79 169.255 228.877 170.258 229.713C170.258 230.549 170.091 231.217 169.757 231.719C169.423 232.22 169.088 232.722 168.754 233.223C168.921 233.892 169.255 234.728 169.757 235.731C170.258 236.734 170.008 237.403 169.005 237.737C167.5 237.235 166.246 237.068 165.243 237.235C164.24 237.235 163.571 237.403 163.237 237.737C163.237 239.91 163.321 241.331 163.488 242C163.655 242.502 163.571 243.087 163.237 243.755C162.736 244.09 162.15 244.173 161.482 244.006C160.98 243.839 160.395 243.839 159.726 244.006C159.392 245.176 158.89 246.263 158.222 247.266C157.72 248.269 156.884 248.938 155.714 249.272C155.547 250.108 155.213 250.693 154.711 251.027C154.377 251.362 154.293 252.03 154.46 253.034C153.959 253.368 153.457 253.702 152.956 254.037C152.621 254.371 152.036 254.538 151.2 254.538C151.535 255.875 151.284 257.046 150.448 258.049C149.612 259.219 148.776 259.135 147.941 257.798C147.439 258.132 147.105 258.55 146.938 259.052C146.77 259.553 146.52 259.971 146.185 260.306C145.851 261.476 145.6 262.312 145.433 262.813C145.266 263.482 145.099 264.234 144.931 265.07C144.096 265.572 143.594 266.324 143.427 267.327C143.26 268.33 142.758 269.166 141.922 269.835C140.752 269.166 140 268.664 139.665 268.33C139.498 267.996 139.331 267.494 139.164 266.825C139.331 266.324 139.749 265.822 140.418 265.321C141.086 264.819 141.003 264.151 140.167 263.315C140.836 261.643 141.003 260.724 140.668 260.556C140.501 260.389 140.418 260.055 140.418 259.553C140.919 257.547 141.086 256.461 140.919 256.293C140.919 253.117 141.421 250.609 142.424 248.771C142.257 247.433 142.257 246.681 142.424 246.514C142.591 246.347 142.675 246.096 142.675 245.761C142.34 244.926 142.006 244.257 141.671 243.755C141.337 243.254 141.17 242.585 141.17 241.749C141.003 240.579 141.086 239.576 141.421 238.74C141.755 237.904 142.173 237.068 142.675 236.232C142.173 234.226 141.755 233.056 141.421 232.722C141.086 232.387 141.003 231.802 141.17 230.966C141.671 229.629 142.006 228.793 142.173 228.459C142.34 227.957 142.507 227.539 142.675 227.205C142.507 226.202 142.173 225.533 141.671 225.199C141.17 224.697 141.003 223.862 141.17 222.691C141.504 221.354 141.421 220.602 140.919 220.434C140.418 220.267 140.251 219.849 140.418 219.181C141.588 217.509 142.089 216.506 141.922 216.171C141.755 215.67 141.755 215.001 141.922 214.165C140.418 211.992 139.916 210.738 140.418 210.404C141.086 209.902 141.671 209.317 142.173 208.649C141.839 208.147 141.421 207.562 140.919 206.893C140.585 206.225 140.585 205.305 140.919 204.135C140.585 203.801 140.167 203.55 139.665 203.383C139.164 203.215 138.83 202.797 138.662 202.129C139.164 200.791 139.749 199.705 140.418 198.869C141.254 198.033 142.006 197.03 142.675 195.86C142.34 195.358 141.839 195.024 141.17 194.857C140.668 194.522 140.501 193.854 140.668 192.851C140.836 192.182 141.086 191.764 141.421 191.597C141.755 191.262 142.089 190.928 142.424 190.594C141.755 189.591 141.755 188.755 142.424 188.086C143.092 187.25 143.343 186.247 143.176 185.077C144.179 184.074 145.099 183.489 145.934 183.322C145.6 182.486 145.266 181.65 144.931 180.814C144.764 179.978 144.848 178.975 145.182 177.805C144.681 176.802 143.928 175.966 142.925 175.297C141.922 174.629 141.337 173.542 141.17 172.037C142.675 170.031 143.343 168.109 143.176 166.27C143.678 164.264 143.427 162.843 142.424 162.007C141.588 161.004 141.671 160.084 142.675 159.248C142.34 158.413 142.006 157.41 141.671 156.239C141.504 155.069 141.839 154.066 142.675 153.23C142.507 152.729 142.257 152.311 141.922 151.976C141.755 151.642 141.755 151.057 141.922 150.221C141.588 149.887 141.254 149.552 140.919 149.218C140.585 148.884 140.251 148.549 139.916 148.215C139.582 146.878 139.749 146.042 140.418 145.707C141.254 145.206 141.839 144.537 142.173 143.701C142.173 142.865 142.34 142.113 142.675 141.444C143.009 140.608 143.009 139.689 142.675 138.686C142.842 136.68 142.675 135.593 142.173 135.426C141.671 135.092 141.421 134.59 141.421 133.921C141.254 133.086 141.421 132.584 141.922 132.417C142.591 132.083 143.26 131.665 143.928 131.163C143.594 129.826 143.26 128.405 142.925 126.9C142.758 125.228 143.26 124.058 144.43 123.389C143.427 122.052 142.675 121.3 142.173 121.133C141.839 120.965 141.504 120.631 141.17 120.13C141.003 118.291 140.501 117.204 139.665 116.87C138.997 116.535 138.495 116.034 138.161 115.365C138.495 114.362 138.412 113.61 137.91 113.108C137.576 112.44 137.325 111.687 137.158 110.851C136.322 111.019 135.402 111.102 134.399 111.102C133.396 110.935 132.895 110.35 132.895 109.347C133.396 107.675 133.229 106.756 132.393 106.588C131.557 106.421 131.223 105.669 131.39 104.332C129.718 103.997 128.799 103.328 128.632 102.325C127.796 101.991 127.044 101.74 126.375 101.573C125.539 101.406 124.954 100.988 124.62 100.319C124.452 98.8148 124.202 97.9789 123.867 97.8117C123.366 97.6445 123.115 97.2266 123.115 96.5579C122.948 95.722 123.282 95.3041 124.118 95.3041C124.954 95.1369 125.79 94.8862 126.626 94.5518C127.796 94.5518 128.465 94.6354 128.632 94.8026C128.799 94.9697 129.05 95.1369 129.384 95.3041C131.056 95.3041 132.56 95.3877 133.898 95.5549C135.402 95.5549 136.823 95.3877 138.161 95.0533C140.334 95.722 141.922 95.8056 142.925 95.3041C144.096 94.8026 145.433 94.4682 146.938 94.301C148.776 94.8026 150.114 94.9697 150.95 94.8026C151.953 94.6354 152.621 94.9697 152.956 95.8056C154.293 95.6384 155.463 95.4713 156.466 95.3041C157.637 95.1369 158.64 94.8862 159.476 94.5518C160.646 94.5518 161.649 94.4682 162.485 94.301C163.488 94.1339 164.574 93.9667 165.745 93.7995C166.246 95.1369 166.246 95.9728 165.745 96.3071C165.41 96.4743 165.16 96.8087 164.992 97.3102C167.834 98.1461 169.84 98.564 171.011 98.564C170.843 99.3999 170.342 99.9014 169.506 100.069C168.837 100.069 168.503 100.487 168.503 101.322C168.67 101.824 169.005 102.158 169.506 102.325C170.008 102.325 170.509 102.325 171.011 102.325C171.512 102.325 171.93 102.409 172.264 102.576C172.599 102.743 172.766 103.078 172.766 103.579C172.264 104.917 172.181 105.753 172.515 106.087C172.85 106.421 173.184 106.839 173.518 107.341C173.685 108.678 173.853 109.932 174.02 111.102C174.354 112.105 174.187 113.025 173.518 113.86C174.354 114.529 175.274 115.031 176.277 115.365C177.447 115.532 178.366 116.034 179.035 116.87C179.369 117.538 179.537 118.374 179.537 119.377C179.704 120.38 179.453 121.049 178.784 121.383C179.286 122.888 179.453 123.724 179.286 123.891C179.119 124.058 179.035 124.309 179.035 124.643C179.202 125.145 179.286 125.73 179.286 126.399C179.286 127.067 179.369 127.82 179.537 128.655C181.877 130.494 183.465 132.417 184.301 134.423C184.468 135.928 184.886 136.847 185.555 137.181C186.224 137.516 186.725 138.017 187.059 138.686C186.725 139.522 186.809 140.191 187.31 140.692C187.812 141.026 187.895 141.612 187.561 142.447C188.23 142.949 188.898 143.367 189.567 143.701C190.236 143.868 190.654 144.453 190.821 145.457C190.988 146.794 191.322 147.63 191.824 147.964C192.325 148.131 192.66 148.549 192.827 149.218C193.663 151.057 193.997 152.227 193.83 152.729C193.83 153.23 193.746 153.732 193.579 154.233C195.251 155.236 196.087 156.072 196.087 156.741C196.087 157.242 195.92 157.827 195.585 158.496C195.251 159.165 194.917 159.834 194.582 160.502C194.248 161.171 194.081 161.84 194.081 162.508C195.585 162.508 196.505 162.843 196.839 163.511C196.672 164.514 196.505 165.601 196.338 166.771C196.338 167.774 196.756 168.694 197.591 169.53C199.43 170.031 200.266 170.7 200.099 171.536C200.601 171.87 201.102 172.121 201.604 172.288C202.105 172.455 202.44 172.957 202.607 173.793C202.105 175.632 202.022 176.635 202.356 176.802C202.69 176.969 202.941 177.22 203.108 177.554C203.443 177.888 203.61 178.306 203.61 178.808C203.61 179.309 203.693 179.811 203.861 180.312C204.696 179.978 205.031 179.477 204.864 178.808C204.696 178.139 204.529 177.387 204.362 176.551C205.198 174.378 205.198 173.124 204.362 172.79C203.693 172.455 203.443 171.619 203.61 170.282C204.111 168.443 204.696 167.189 205.365 166.521C206.034 165.685 206.452 164.849 206.619 164.013C206.619 163.344 206.452 162.759 206.117 162.258C205.95 161.589 205.867 161.004 205.867 160.502C205.365 160.001 204.78 159.499 204.111 158.998C203.61 158.496 203.192 157.911 202.857 157.242C202.857 154.902 202.857 153.565 202.857 153.23C203.025 150.555 203.359 148.716 203.861 147.713C204.362 146.543 205.031 145.624 205.867 144.955C205.198 142.949 205.031 141.946 205.365 141.946C205.867 141.779 206.201 141.528 206.368 141.194C206.034 140.525 205.616 140.191 205.114 140.191C204.613 140.023 204.195 139.773 203.861 139.438C203.359 138.435 203.275 137.349 203.61 136.178C204.111 135.008 204.78 134.256 205.616 133.921C204.278 132.083 203.275 130.829 202.607 130.16C201.938 129.491 201.687 128.488 201.854 127.151C202.022 126.315 202.44 125.73 203.108 125.396C203.944 124.894 204.78 124.476 205.616 124.142C205.282 123.306 204.446 122.721 203.108 122.386C201.938 121.885 201.604 120.882 202.105 119.377C202.941 117.706 203.192 116.786 202.857 116.619C202.69 116.285 202.69 115.783 202.857 115.114C202.857 114.446 202.941 113.944 203.108 113.61C203.443 113.275 203.777 112.941 204.111 112.607C204.278 111.771 204.278 111.102 204.111 110.601C203.944 109.932 203.693 109.263 203.359 108.594C203.359 106.588 203.108 105.335 202.607 104.833C202.272 104.164 202.356 103.412 202.857 102.576C201.687 101.239 201.186 100.319 201.353 99.8178C201.52 99.1491 201.604 98.4804 201.604 97.8117C203.275 95.6384 204.78 94.301 206.117 93.7995C207.622 93.1308 208.959 93.2144 210.13 94.0503C210.798 93.8831 211.3 93.7159 211.634 93.5488C212.136 93.3816 212.721 93.2144 213.389 93.0472C215.061 94.3846 216.315 94.8862 217.151 94.5518C218.154 94.0503 218.906 93.6323 219.408 93.298C221.247 93.1308 222.501 92.9636 223.169 92.7965C224.005 92.4621 224.925 92.3785 225.928 92.5457C227.599 93.2144 228.77 93.6323 229.438 93.7995C230.107 93.7995 230.859 93.6323 231.695 93.298C232.531 93.6323 233.45 93.7159 234.454 93.5488C235.457 93.3816 236.292 93.1308 236.961 92.7965C238.466 93.4652 239.887 93.6323 241.224 93.298C242.561 92.7965 243.815 92.3785 244.986 92.0442C246.49 92.5457 247.41 92.7129 247.744 92.5457C248.078 92.2114 248.58 92.0442 249.248 92.0442ZM351.309 237.737C351.142 238.573 351.225 239.325 351.559 239.994C352.061 240.495 352.312 241.164 352.312 242C352.98 243.505 353.148 244.257 352.813 244.257C352.646 244.257 352.562 244.424 352.562 244.758C351.894 244.758 351.392 244.591 351.058 244.257C350.891 244.09 350.473 244.09 349.804 244.257C347.965 243.087 346.711 242.669 346.043 243.003C345.374 243.337 344.705 243.254 344.037 242.752C342.198 243.087 341.111 243.003 340.777 242.502C340.609 242.167 340.359 241.833 340.024 241.498C337.684 242.669 335.176 243.254 332.502 243.254C330.997 242.752 329.994 242.502 329.492 242.502C328.991 242.669 328.406 242.752 327.737 242.752C325.397 243.421 324.226 243.17 324.226 242C324.226 240.997 324.31 240.077 324.477 239.242C323.641 237.403 323.307 236.4 323.474 236.232C323.641 236.065 323.725 235.815 323.725 235.48C323.39 234.644 323.056 233.976 322.722 233.474C322.387 232.973 322.22 232.304 322.22 231.468C321.886 230.966 321.635 230.549 321.468 230.214C321.301 229.713 321.134 229.211 320.966 228.71C320.131 226.703 319.796 225.533 319.963 225.199C320.298 224.865 320.465 224.447 320.465 223.945C319.796 222.106 319.295 221.02 318.96 220.685C318.793 220.184 318.71 219.766 318.71 219.431C318.542 217.76 318.292 217.007 317.957 217.175C317.623 217.175 317.289 217.007 316.954 216.673C316.62 215.336 316.62 214.5 316.954 214.165C317.289 213.664 317.539 213.162 317.707 212.661C317.372 212.326 317.121 211.909 316.954 211.407C316.954 210.905 316.787 210.488 316.453 210.153C315.617 209.484 314.948 208.816 314.447 208.147C313.945 207.478 313.611 206.475 313.444 205.138C313.276 203.132 313.109 201.794 312.942 201.126C312.942 200.457 313.109 199.788 313.444 199.12C312.608 199.12 311.772 199.287 310.936 199.621C310.267 199.788 309.348 199.872 308.178 199.872C306.004 199.705 304.5 199.621 303.664 199.621C302.828 199.621 301.741 199.621 300.404 199.621C298.899 199.454 297.813 199.37 297.144 199.37C296.475 199.37 295.974 199.12 295.639 198.618C294.804 198.952 294.051 199.203 293.383 199.37C292.714 199.538 291.962 199.538 291.126 199.37C289.454 200.206 288.535 200.541 288.367 200.373C288.2 200.206 287.949 200.123 287.615 200.123C287.281 200.457 287.03 200.875 286.863 201.377C286.696 201.878 286.445 202.296 286.111 202.63C286.445 203.299 286.528 203.968 286.361 204.636C286.194 205.305 286.027 205.89 285.86 206.392C286.194 207.896 286.361 208.816 286.361 209.15C286.361 209.484 286.278 209.819 286.111 210.153C285.776 211.992 285.525 213.246 285.358 213.915C284.188 215.085 283.352 216.506 282.851 218.178C282.516 219.013 282.265 219.766 282.098 220.434C281.931 221.103 281.68 221.855 281.346 222.691C281.012 225.032 280.594 227.289 280.092 229.462C279.758 231.635 279.591 233.808 279.591 235.982C279.089 237.486 278.671 238.322 278.337 238.489C278.17 238.489 278.003 238.656 277.835 238.991C277.668 239.827 277.501 240.328 277.334 240.495C277.167 240.495 277.167 240.913 277.334 241.749C275.996 242.919 275.328 243.505 275.328 243.505C275.495 243.672 275.495 243.922 275.328 244.257C274.158 245.26 273.489 246.096 273.322 246.764C273.322 247.433 273.071 247.935 272.569 248.269C271.733 248.436 271.148 248.269 270.814 247.768C270.647 247.266 270.312 247.015 269.811 247.015C268.641 247.35 267.721 248.018 267.053 249.021C266.384 250.024 265.381 250.359 264.043 250.024C263.709 250.526 263.375 251.613 263.04 253.284C261.703 253.953 260.282 254.454 258.777 254.789C257.44 255.29 256.186 255.959 255.016 256.795C254.682 256.628 254.18 256.544 253.511 256.544C253.01 256.711 252.592 256.795 252.258 256.795C251.923 257.129 251.756 257.547 251.756 258.049C251.923 258.717 252.007 259.386 252.007 260.055C250.502 260.724 249.248 260.891 248.245 260.556C247.075 261.058 246.657 262.395 246.992 264.569C245.821 266.24 244.066 266.909 241.726 266.575C240.89 268.079 240.305 268.999 239.97 269.333C239.636 269.667 239.051 269.751 238.215 269.584C237.379 270.085 236.794 270.67 236.46 271.339C235.958 272.175 235.289 272.844 234.453 273.345C233.45 273.512 232.865 273.763 232.698 274.098C232.531 274.432 232.28 274.766 231.946 275.101C231.11 275.769 230.358 276.354 229.689 276.856C228.853 277.525 228.017 278.11 227.181 278.611C225.677 280.45 224.841 281.537 224.674 281.871C224.507 282.373 224.172 282.791 223.671 283.125C222.5 281.788 222.166 280.868 222.668 280.367C223.002 279.865 223.336 279.28 223.671 278.611C224.841 276.772 225.593 275.769 225.928 275.602C226.095 275.435 226.262 275.184 226.429 274.85C226.763 274.515 227.014 274.014 227.181 273.345C227.181 272.844 227.349 272.342 227.683 271.841C229.856 269.835 231.444 267.912 232.447 266.073C233.45 264.234 234.203 262.145 234.704 259.804C235.54 257.129 236.292 255.541 236.961 255.04C237.463 252.699 238.048 251.278 238.716 250.777C239.218 250.275 239.636 249.69 239.97 249.021V245.511C240.806 245.176 241.642 244.842 242.478 244.508C243.147 244.34 243.899 244.09 244.735 243.755C245.403 242.418 246.156 241.164 246.992 239.994C247.995 238.656 248.747 237.068 249.248 235.229C250.084 234.394 250.753 233.474 251.255 232.471C251.589 231.635 251.422 230.966 250.753 230.465C250.084 229.963 249.917 229.295 250.252 228.459C250.252 227.79 250.586 227.372 251.255 227.205C252.09 226.871 252.759 226.536 253.261 226.202C253.762 224.697 254.18 223.778 254.514 223.444C254.514 222.441 254.598 221.437 254.765 220.434C254.932 219.431 255.35 218.596 256.019 217.927C255.852 216.924 256.019 215.921 256.521 214.918C256.521 211.909 256.604 209.234 256.771 206.893C257.106 204.386 257.858 202.463 259.028 201.126C258.861 198.117 259.112 196.11 259.78 195.107C260.616 194.104 261.201 193.018 261.536 191.848C261.536 191.179 261.369 190.677 261.034 190.343C260.867 189.841 260.7 189.424 260.533 189.089C260.867 187.752 261.536 186.749 262.539 186.08C263.542 185.244 264.378 184.325 265.046 183.322C264.879 181.817 265.13 180.563 265.799 179.56C266.635 178.39 267.136 177.136 267.303 175.799C266.969 173.291 266.885 171.619 267.053 170.784C267.387 169.78 267.554 168.777 267.554 167.774C268.724 166.27 269.226 165.434 269.059 165.267C269.059 165.1 269.059 164.849 269.059 164.514C269.56 163.846 269.895 163.01 270.062 162.007C270.229 160.837 270.563 159.834 271.065 158.998C271.232 156.992 271.148 155.153 270.814 153.481C271.483 152.812 272.068 151.976 272.569 150.973C273.071 149.97 273.572 148.967 274.074 147.964C272.569 147.128 272.068 145.791 272.569 143.952C273.238 143.618 273.74 143.2 274.074 142.698C274.408 142.029 274.743 141.444 275.077 140.943C274.743 139.605 274.826 138.686 275.328 138.184C275.829 137.683 275.913 137.014 275.578 136.178C275.913 135.342 276.247 134.59 276.582 133.921C276.916 133.086 276.999 132.083 276.832 130.912C276.999 130.076 277.25 129.408 277.585 128.906C277.919 128.238 278.003 127.402 277.835 126.399C278.17 126.064 278.504 125.73 278.838 125.396C279.34 124.894 279.591 124.225 279.591 123.389C279.424 122.888 279.256 122.47 279.089 122.136C278.922 121.634 278.755 121.049 278.588 120.38C279.256 118.374 279.424 117.288 279.089 117.12C278.755 116.786 278.588 116.452 278.588 116.117C278.922 115.616 279.173 115.198 279.34 114.864C279.507 114.529 279.424 113.944 279.089 113.108C278.588 112.774 278.003 112.44 277.334 112.105C276.832 111.771 276.331 111.436 275.829 111.102C275.495 110.099 275.495 109.263 275.829 108.594C276.331 107.926 276.749 107.174 277.083 106.338C276.08 104.833 275.411 104.081 275.077 104.081C274.91 103.914 274.659 103.83 274.325 103.83C272.82 102.66 271.901 101.49 271.566 100.319C269.895 99.985 268.557 99.6506 267.554 99.3163C268.223 97.8117 269.059 97.0594 270.062 97.0594C271.232 97.0594 272.151 96.7251 272.82 96.0564C276.331 95.0533 280.427 94.719 285.107 95.0533C286.111 95.722 286.946 96.14 287.615 96.3071C288.451 96.4743 289.12 96.4743 289.621 96.3071C290.123 95.9728 290.791 95.6384 291.627 95.3041C292.798 95.6384 293.801 95.5549 294.636 95.0533C295.472 94.3846 296.559 94.2175 297.896 94.5518C299.234 95.5549 300.07 95.9728 300.404 95.8056C300.738 95.4713 301.073 95.2205 301.407 95.0533C302.912 95.3877 303.998 95.5549 304.667 95.5549C305.503 95.5549 306.088 95.722 306.422 96.0564C306.924 95.722 307.425 95.4713 307.927 95.3041C308.596 94.9697 309.264 94.6354 309.933 94.301C310.769 94.6354 311.354 95.0533 311.688 95.5549C312.19 96.0564 312.775 96.4743 313.444 96.8087C313.109 98.1461 313.109 99.1491 313.444 99.8178C313.945 100.487 314.363 101.239 314.697 102.075C314.53 102.743 314.363 103.245 314.196 103.579C314.029 103.914 313.862 104.332 313.694 104.833C314.865 106.17 315.784 107.174 316.453 107.842C316.453 109.18 316.202 110.183 315.7 110.851C316.369 112.022 316.787 113.359 316.954 114.864C317.121 116.368 317.623 117.538 318.459 118.374C318.459 119.21 318.542 119.879 318.71 120.38C319.044 120.882 319.211 121.467 319.211 122.136C319.378 123.807 319.378 124.727 319.211 124.894C319.044 124.894 318.96 125.061 318.96 125.396C319.462 126.064 319.88 126.817 320.214 127.652C320.549 128.321 320.716 129.324 320.716 130.662C322.22 132.5 322.805 133.587 322.471 133.921C322.638 135.259 322.805 136.429 322.973 137.432C323.307 138.435 323.808 139.355 324.477 140.191C324.477 141.862 324.644 143.283 324.979 144.453C325.313 145.624 325.647 146.794 325.982 147.964C327.152 147.797 327.821 147.63 327.988 147.463C328.322 147.128 328.656 146.961 328.991 146.961C329.827 148.299 329.994 149.134 329.492 149.469C328.991 149.636 328.656 149.97 328.489 150.472C328.656 152.311 328.573 153.397 328.239 153.732C328.573 154.568 328.573 155.487 328.239 156.49C328.071 157.493 328.239 158.413 328.74 159.248C328.907 159.75 329.158 160.252 329.492 160.753C329.994 161.087 330.245 161.672 330.245 162.508C331.749 163.846 332.418 165.1 332.251 166.27C332.251 167.44 332.084 168.527 331.749 169.53C332.418 171.369 332.836 172.455 333.003 172.79C333.17 172.957 333.421 173.124 333.755 173.291C334.424 174.127 334.926 175.13 335.26 176.3C335.594 177.471 335.929 178.557 336.263 179.56C336.597 181.733 336.764 183.154 336.764 183.823C338.102 186.331 338.687 188.253 338.52 189.591C338.52 190.259 338.269 190.844 337.768 191.346C337.266 191.848 336.932 192.433 336.764 193.101C338.436 193.436 339.356 194.021 339.523 194.857C339.69 197.03 339.941 198.618 340.275 199.621C340.609 200.457 340.693 201.544 340.526 202.881C340.86 203.717 341.111 204.72 341.278 205.89C341.445 206.893 341.78 207.98 342.281 209.15C342.616 209.986 342.783 210.738 342.783 211.407C342.95 211.909 342.866 212.577 342.532 213.413C342.866 214.082 343.368 214.75 344.037 215.419C344.705 216.088 344.705 216.924 344.037 217.927C344.705 220.434 345.625 222.273 346.795 223.444C347.129 224.614 347.464 225.45 347.798 225.951C348.3 226.286 348.717 226.787 349.052 227.456C349.052 228.124 348.968 228.71 348.801 229.211C348.634 229.545 348.467 229.88 348.3 230.214C348.634 231.05 348.968 231.719 349.303 232.22C349.804 232.722 349.971 233.641 349.804 234.979C350.138 235.313 350.389 235.815 350.556 236.483C350.724 236.985 350.974 237.403 351.309 237.737ZM308.679 176.551C308.345 176.05 307.927 175.632 307.425 175.297C307.091 174.796 306.757 174.127 306.422 173.291C306.255 172.121 306.255 171.285 306.422 170.784C306.589 170.115 306.757 169.363 306.924 168.527C305.586 167.524 304.5 166.437 303.664 165.267C302.995 164.097 303.079 162.676 303.915 161.004L302.661 158.245C301.992 157.242 301.658 156.323 301.658 155.487C300.655 154.651 300.404 153.481 300.905 151.976C300.571 151.642 300.32 151.057 300.153 150.221C300.153 149.218 300.32 148.466 300.655 147.964C300.488 146.125 300.488 144.621 300.655 143.45C300.989 142.113 300.989 141.026 300.655 140.191C300.153 140.692 299.819 141.277 299.652 141.946C299.484 142.447 299.234 142.949 298.899 143.45C298.565 145.122 298.314 146.46 298.147 147.463C297.98 148.466 297.729 149.385 297.395 150.221C297.562 151.057 297.646 152.311 297.646 153.982C297.311 154.651 296.893 155.236 296.392 155.738C295.89 156.239 295.389 156.824 294.887 157.493C295.556 158.329 295.723 159.165 295.389 160.001C295.054 160.669 294.636 161.338 294.135 162.007C294.804 163.511 294.971 164.514 294.636 165.016C294.302 165.35 294.135 165.768 294.135 166.27C293.633 167.607 293.55 168.945 293.884 170.282C294.386 171.619 294.386 172.957 293.884 174.294C294.218 175.464 294.302 176.551 294.135 177.554C294.135 178.39 294.553 178.975 295.389 179.309C296.726 179.142 297.729 178.724 298.398 178.056C299.067 177.387 299.986 177.136 301.156 177.303C303.162 178.139 304.583 178.641 305.419 178.808C306.422 178.808 307.509 178.808 308.679 178.808V176.551ZM448.103 138.686C447.434 140.859 447.601 142.364 448.604 143.2C449.775 144.036 449.858 145.039 448.855 146.209C448.521 146.543 448.019 146.71 447.351 146.71C446.849 146.543 446.431 146.543 446.097 146.71C445.762 147.045 445.595 147.463 445.595 147.964C445.595 148.466 445.595 148.967 445.595 149.469C444.759 150.806 444.174 151.642 443.84 151.976C443.673 152.311 443.506 152.729 443.338 153.23C443.506 154.4 443.673 155.487 443.84 156.49C444.007 157.493 443.924 158.58 443.589 159.75C443.255 162.425 442.586 164.264 441.583 165.267C440.58 166.27 439.326 166.938 437.822 167.273C437.487 168.61 437.153 170.031 436.819 171.536C436.651 172.873 435.816 173.542 434.311 173.542C432.806 175.214 431.135 176.217 429.296 176.551C429.296 177.053 429.379 177.554 429.546 178.056C429.881 178.39 430.048 178.891 430.048 179.56C429.546 180.563 428.627 180.981 427.29 180.814C425.952 180.647 424.949 180.312 424.28 179.811C422.274 180.145 420.686 180.312 419.516 180.312C418.513 180.312 417.593 180.48 416.758 180.814C416.256 181.316 415.838 181.817 415.504 182.319C415.169 182.82 414.668 183.238 413.999 183.572C411.826 182.737 410.489 182.569 409.987 183.071C409.653 183.405 409.235 183.74 408.733 184.074C407.73 184.074 406.811 183.656 405.975 182.82C405.139 183.154 404.303 183.572 403.467 184.074C402.799 184.575 401.963 184.659 400.96 184.325C400.291 184.826 399.622 184.993 398.953 184.826C398.285 184.659 397.365 184.659 396.195 184.826C395.694 184.492 395.276 184.157 394.941 183.823C394.607 183.322 394.273 182.82 393.938 182.319C393.102 182.319 392.601 182.653 392.434 183.322C392.267 183.99 391.765 184.325 390.929 184.325C389.759 185.829 389.174 186.999 389.174 187.835C389.341 188.504 389.592 189.006 389.926 189.34C388.923 191.848 388.589 193.603 388.923 194.606C389.257 195.609 389.341 196.696 389.174 197.866C388.505 199.705 388.338 200.791 388.672 201.126C389.007 201.293 389.174 201.711 389.174 202.38C389.007 204.218 388.839 205.389 388.672 205.89C388.505 206.225 388.338 206.726 388.171 207.395C388.672 209.234 388.756 210.32 388.421 210.655C388.254 210.989 388.004 211.407 387.669 211.909C388.004 212.41 388.171 212.995 388.171 213.664C388.338 214.165 388.589 214.75 388.923 215.419C388.923 216.088 388.839 216.673 388.672 217.175C388.505 217.509 388.338 217.843 388.171 218.178C388.004 218.846 388.087 219.348 388.421 219.682C388.756 219.849 388.839 220.267 388.672 220.936C388.672 222.775 388.839 224.279 389.174 225.45C389.508 226.62 389.425 227.707 388.923 228.71C389.09 229.713 389.425 230.632 389.926 231.468C390.595 232.137 390.846 232.973 390.678 233.976C390.678 236.149 390.678 237.403 390.678 237.737C390.846 237.904 390.929 238.155 390.929 238.489C390.762 239.994 390.678 241.081 390.678 241.749C389.508 242.752 388.421 243.755 387.418 244.758C386.917 246.597 386.081 247.433 384.911 247.266C383.908 247.099 383.072 247.35 382.403 248.018C382.905 249.857 382.905 250.86 382.403 251.027C382.069 251.195 381.734 251.445 381.4 251.78C381.066 254.622 380.146 256.377 378.642 257.046C377.304 257.714 376.218 258.801 375.382 260.306C375.215 262.813 374.797 264.067 374.128 264.067C373.627 264.234 373.041 264.485 372.373 264.819C372.038 265.154 371.788 265.572 371.62 266.073C371.62 266.575 371.537 267.076 371.37 267.578C371.035 267.912 370.701 268.33 370.367 268.832C370.199 269.333 369.949 269.751 369.614 270.085C369.447 270.754 369.364 271.924 369.364 273.596C369.029 275.101 368.778 276.02 368.611 276.354C368.611 276.689 368.611 277.023 368.611 277.357C368.444 278.862 368.528 279.781 368.862 280.116C369.196 280.617 369.364 281.202 369.364 281.871C368.862 282.874 368.277 283.041 367.608 282.373C366.94 281.871 366.438 281.37 366.104 280.868C365.769 282.373 365.435 283.292 365.101 283.627C363.596 282.122 362.76 280.785 362.593 279.614C362.426 278.444 361.924 277.608 361.088 277.107C360.921 275.769 360.921 275.017 361.088 274.85C361.423 274.683 361.59 274.432 361.59 274.098C361.423 271.757 361.172 270.253 360.838 269.584C360.67 269.082 360.587 268.246 360.587 267.076C361.256 265.906 361.506 265.154 361.339 264.819C361.339 264.485 361.339 264.067 361.339 263.566C362.342 262.228 362.677 261.309 362.342 260.807C362.175 260.306 362.175 259.804 362.342 259.303C362.844 258.968 363.345 258.801 363.847 258.801C364.515 258.801 365.017 258.383 365.351 257.547C363.847 256.21 363.262 255.123 363.596 254.287C362.927 253.786 362.342 253.201 361.841 252.532C361.339 252.03 361.005 251.362 360.838 250.526C361.674 249.188 362.259 248.269 362.593 247.768C362.927 247.433 363.095 246.848 363.095 246.012C361.757 244.842 361.172 244.09 361.339 243.755C361.506 243.588 361.674 243.337 361.841 243.003C361.841 241.498 362.175 240.412 362.844 239.743C362.844 237.57 362.426 235.397 361.59 233.223C362.091 231.886 362.509 231.05 362.844 230.716C363.178 230.214 363.512 229.796 363.847 229.462C363.847 228.459 363.68 227.539 363.345 226.703C363.011 225.7 362.677 224.781 362.342 223.945C362.008 223.109 361.841 222.357 361.841 221.688C361.841 220.852 362.342 220.1 363.345 219.431C362.844 217.927 362.927 216.673 363.596 215.67C363.429 215.001 363.262 214.5 363.095 214.165C363.095 213.664 363.178 213.079 363.345 212.41C363.847 209.735 363.847 207.896 363.345 206.893C363.011 205.723 362.593 204.469 362.091 203.132C362.593 201.46 362.76 200.29 362.593 199.621C362.593 198.952 362.844 198.284 363.345 197.615C363.345 194.439 362.927 192.015 362.091 190.343C361.423 188.671 361.088 186.832 361.088 184.826C361.423 184.492 361.59 183.99 361.59 183.322C361.757 182.653 361.841 182.068 361.841 181.566C361.674 179.393 361.757 178.056 362.091 177.554C362.426 177.053 362.677 176.384 362.844 175.548C362.175 173.375 361.924 172.037 362.091 171.536C362.426 171.034 362.76 170.366 363.095 169.53C362.593 168.527 362.259 167.356 362.091 166.019C362.091 164.682 362.008 163.344 361.841 162.007C362.175 160.168 362.175 159.081 361.841 158.747C361.506 158.245 361.172 157.66 360.838 156.992C361.005 155.487 361.674 154.15 362.844 152.979C362.509 150.973 362.509 149.636 362.844 148.967C363.011 148.131 363.011 147.463 362.844 146.961C362.677 146.46 362.426 145.958 362.091 145.457C361.924 145.122 361.924 144.704 362.091 144.203C362.259 143.701 362.342 143.2 362.342 142.698C361.841 140.692 361.674 139.689 361.841 139.689C362.175 139.522 362.426 139.355 362.593 139.187C362.259 138.184 362.259 137.432 362.593 136.931C363.095 136.429 363.512 135.928 363.847 135.426C363.68 134.59 363.512 133.754 363.345 132.918C363.345 131.915 363.095 131.079 362.593 130.411C362.426 128.572 362.008 126.984 361.339 125.646L362.091 121.885C360.754 120.547 360.169 119.795 360.336 119.628C360.67 119.294 360.754 118.792 360.587 118.123C360.253 117.622 359.835 117.204 359.333 116.87C358.999 116.535 358.748 116.034 358.581 115.365C357.411 113.359 356.575 111.854 356.073 110.851C355.739 109.681 355.404 108.427 355.07 107.09C353.733 106.588 352.98 105.585 352.813 104.081C351.977 103.746 351.309 103.245 350.807 102.576C350.473 101.907 349.888 101.322 349.052 100.821C347.714 101.322 346.544 101.239 345.541 100.57C344.538 99.7342 344.204 98.6476 344.538 97.3102C346.711 96.8087 347.965 96.3907 348.3 96.0564C348.467 95.722 348.885 95.5549 349.553 95.5549C350.222 95.722 350.64 95.9728 350.807 96.3071C351.142 96.6415 351.476 96.9758 351.81 97.3102C354.652 96.8087 356.491 96.3071 357.327 95.8056C358.163 95.1369 358.999 94.8862 359.835 95.0533C360.503 94.719 361.339 94.301 362.342 93.7995C363.345 93.298 364.265 93.4652 365.101 94.301C365.602 93.9667 366.02 93.7159 366.354 93.5488C366.689 93.2144 367.274 93.1308 368.11 93.298C368.611 93.6323 368.862 94.0503 368.862 94.5518C369.029 94.8862 369.28 95.3041 369.614 95.8056C370.45 95.4713 371.37 95.3041 372.373 95.3041C373.376 95.3041 374.044 94.8862 374.379 94.0503C375.716 93.7159 376.886 93.6323 377.889 93.7995C380.063 95.1369 381.484 95.6384 382.152 95.3041C382.821 94.8026 383.573 94.3846 384.409 94.0503C385.747 94.3846 386.833 94.301 387.669 93.7995C388.672 93.298 389.675 92.8801 390.678 92.5457C391.347 92.8801 391.849 93.298 392.183 93.7995C392.517 94.1339 392.852 94.4682 393.186 94.8026C395.192 94.8026 396.362 94.8026 396.697 94.8026C397.198 94.6354 397.95 94.5518 398.953 94.5518C399.455 94.8862 399.873 95.2205 400.207 95.5549C400.709 95.8892 401.21 96.2236 401.712 96.5579C402.715 96.2236 403.634 96.14 404.47 96.3071C405.473 96.14 406.309 95.8892 406.978 95.5549C407.814 95.2205 408.733 94.9697 409.736 94.8026C411.575 95.3041 412.996 95.4713 413.999 95.3041C415.169 95.1369 416.173 95.2205 417.008 95.5549C419.014 95.0533 420.101 94.9697 420.268 95.3041C420.435 95.6384 420.686 95.9728 421.021 96.3071C422.692 97.4774 424.364 98.0625 426.036 98.0625C427.54 99.5671 428.46 100.487 428.794 100.821C429.296 101.155 429.797 101.49 430.299 101.824C431.636 101.824 432.723 102.242 433.559 103.078C434.227 105.418 435.23 106.588 436.568 106.588C438.072 107.591 439.075 108.929 439.577 110.601C440.413 110.935 440.914 111.269 441.082 111.604C441.416 111.938 441.75 112.44 442.085 113.108C442.753 114.278 443.004 115.281 442.837 116.117C442.67 116.953 442.67 117.706 442.837 118.374C443.338 119.21 443.924 119.879 444.592 120.38C445.261 120.882 445.762 121.551 446.097 122.386C445.93 124.393 446.013 125.646 446.348 126.148C446.682 126.482 446.933 127.067 447.1 127.903C447.936 129.408 448.354 130.578 448.354 131.414C448.186 133.253 448.186 134.674 448.354 135.677C448.688 136.513 448.604 137.516 448.103 138.686ZM423.528 145.707C423.695 144.036 423.695 143.032 423.528 142.698C423.361 142.364 423.194 141.946 423.027 141.444C422.692 139.605 422.609 138.101 422.776 136.931C422.442 136.596 422.274 136.095 422.274 135.426C422.274 134.59 422.107 133.921 421.773 133.42C421.104 132.083 420.77 130.662 420.77 129.157C420.77 127.652 420.435 126.482 419.767 125.646C417.761 124.978 416.841 123.724 417.008 121.885L413.999 119.879C413.331 119.21 412.745 118.625 412.244 118.123C411.742 117.455 411.074 116.953 410.238 116.619C409.736 116.953 409.151 117.288 408.482 117.622C407.814 117.956 407.061 118.04 406.226 117.873C404.22 117.371 402.882 117.12 402.213 117.12C401.545 117.12 400.792 117.12 399.957 117.12C397.95 117.789 396.864 118.04 396.697 117.873C396.529 117.538 396.279 117.204 395.944 116.87C393.437 116.535 391.932 116.619 391.431 117.12C391.096 117.622 390.511 117.873 389.675 117.873C390.01 119.21 390.01 120.213 389.675 120.882C389.508 121.551 389.257 122.303 388.923 123.139C388.923 123.975 389.09 124.56 389.425 124.894C389.926 125.061 390.26 125.479 390.428 126.148C390.595 127.485 390.344 128.488 389.675 129.157C389.174 129.659 388.756 130.494 388.421 131.665C389.257 133.336 389.592 134.256 389.425 134.423C389.425 134.423 389.425 134.59 389.425 134.925C389.926 135.76 390.093 136.763 389.926 137.934C389.759 138.937 389.508 139.94 389.174 140.943C389.508 141.612 389.592 142.364 389.425 143.2C389.425 143.868 389.425 144.621 389.425 145.457C389.926 147.964 390.093 149.552 389.926 150.221C389.926 150.723 389.926 151.475 389.926 152.478C388.923 153.314 388.421 154.568 388.421 156.239C389.592 157.744 390.01 158.58 389.675 158.747C389.508 158.747 389.341 158.914 389.174 159.248C389.508 159.75 389.675 160.335 389.675 161.004C389.675 161.505 389.675 161.923 389.675 162.258C390.01 162.592 390.344 162.759 390.678 162.759C391.18 162.592 391.849 162.508 392.684 162.508C394.858 162.508 396.613 162.508 397.95 162.508C399.288 162.508 400.625 162.676 401.963 163.01C402.799 162.843 403.551 162.592 404.22 162.258C405.055 161.756 405.975 161.672 406.978 162.007C408.817 161.338 409.903 161.087 410.238 161.255C410.739 161.422 411.241 161.422 411.742 161.255C412.745 161.087 413.498 160.669 413.999 160.001C414.501 159.332 414.919 158.663 415.253 157.995C416.758 156.323 417.593 155.32 417.761 154.985C418.095 154.484 418.346 153.899 418.513 153.23C418.68 152.561 419.014 152.06 419.516 151.726C420.185 150.221 420.77 148.967 421.271 147.964C421.773 146.794 422.525 146.042 423.528 145.707Z" fill="#3AE5E1"/>
<path d="M586.363 189.34C587.366 189.34 587.784 189.841 587.617 190.845C587.449 191.848 587.533 192.683 587.867 193.352C587.7 194.021 587.449 194.522 587.115 194.857C586.948 195.191 586.781 195.609 586.614 196.111C586.446 197.281 586.279 198.451 586.112 199.621C586.112 200.624 585.945 201.544 585.611 202.38C583.939 204.553 583.186 205.974 583.354 206.643C583.521 207.311 583.521 208.064 583.354 208.899C582.518 211.073 582.1 212.744 582.1 213.915C581.431 214.918 581.013 216.171 580.846 217.676C580.679 219.181 580.679 220.602 580.846 221.939C580.512 222.942 579.843 223.694 578.84 224.196C577.837 224.697 577.001 225.366 576.332 226.202C576.332 227.038 576.332 227.957 576.332 228.96C576.499 229.796 576.249 230.465 575.58 230.966C574.075 231.802 573.407 232.555 573.574 233.223C573.741 233.892 573.908 234.477 574.075 234.979C573.072 236.985 572.487 238.322 572.32 238.991C572.32 239.492 572.404 240.161 572.571 240.997C572.404 242.836 572.069 244.006 571.568 244.508C570.732 244.508 569.98 244.591 569.311 244.758C568.809 244.926 568.141 245.176 567.305 245.511C566.135 245.511 565.215 245.26 564.546 244.758C562.875 245.093 561.955 245.093 561.788 244.758C561.621 244.591 561.37 244.34 561.036 244.006C560.2 243.839 559.698 244.09 559.531 244.758C559.531 245.427 559.113 245.678 558.277 245.511C557.442 244.006 556.606 243.17 555.77 243.003C555.101 243.003 554.432 243.087 553.764 243.254C553.095 242.919 552.259 242.752 551.256 242.752C550.253 242.752 549.334 242.836 548.498 243.003C547.996 242.836 547.077 242.585 545.739 242.251C544.569 242.084 543.817 241.916 543.482 241.749C542.981 242.251 542.479 243.003 541.978 244.006C541.644 245.176 540.975 245.845 539.972 246.012C539.303 244.842 538.969 243.923 538.969 243.254C539.136 242.585 539.303 241.833 539.47 240.997C537.966 242.836 536.043 243.672 533.703 243.505C531.362 243.337 529.691 243.337 528.687 243.505C527.852 243.672 526.765 243.755 525.428 243.755C524.09 243.755 523.254 243.421 522.92 242.752C521.248 242.418 520.329 242.502 520.162 243.003C520.162 243.505 519.827 243.839 519.159 244.006C517.487 243.839 516.4 243.672 515.899 243.505C514.394 243.003 513.307 243.087 512.639 243.755C512.304 244.257 512.054 244.675 511.886 245.009C511.719 245.511 511.385 245.929 510.883 246.263C509.044 245.093 507.958 244.675 507.623 245.009C507.456 245.343 506.955 245.427 506.119 245.26C505.785 243.755 505.534 243.003 505.367 243.003C505.199 243.003 505.032 242.919 504.865 242.752C504.029 242.919 503.361 243.17 502.859 243.505C502.525 244.006 501.856 244.173 500.853 244.006C498.847 243.337 497.76 242.919 497.593 242.752C497.593 242.585 497.426 242.418 497.091 242.251C496.423 242.418 495.754 242.418 495.085 242.251C494.417 242.251 493.748 242.418 493.079 242.752C491.073 243.087 489.234 243.254 487.562 243.254C486.727 243.588 485.389 243.923 483.55 244.257C481.879 244.591 480.374 244.424 479.037 243.755C478.535 241.916 477.866 241.164 477.03 241.498C476.362 241.833 475.693 242.084 475.024 242.251C474.523 242.585 474.021 242.836 473.52 243.003C473.018 243.17 472.35 243.421 471.514 243.755C470.845 243.755 470.343 243.672 470.009 243.505C469.675 243.505 469.257 243.421 468.755 243.254C468.254 243.421 467.669 243.588 467 243.755C466.498 244.09 465.913 244.09 465.245 243.755C465.579 242.919 466.081 242.251 466.749 241.749C467.418 241.248 468.087 240.746 468.755 240.245C469.257 239.409 470.009 238.74 471.012 238.239C472.517 236.734 473.353 235.982 473.52 235.982C473.854 235.982 474.189 235.898 474.523 235.731C475.359 235.229 475.86 234.477 476.027 233.474C476.195 232.471 476.445 231.468 476.78 230.465C477.783 229.128 478.034 228.292 477.532 227.957C477.198 227.623 477.114 227.038 477.281 226.202C477.95 225.199 479.371 224.697 481.544 224.697C481.879 223.862 481.879 223.109 481.544 222.441C481.21 221.772 481.21 220.852 481.544 219.682C481.879 219.348 482.296 219.181 482.798 219.181C483.3 219.013 483.717 218.763 484.052 218.428C484.219 217.592 484.219 216.924 484.052 216.422C483.885 215.754 483.634 215.001 483.3 214.165C483.634 213.497 483.717 212.828 483.55 212.159C483.55 211.491 483.467 210.822 483.3 210.153C483.467 209.652 483.634 209.234 483.801 208.899C483.968 208.565 484.052 208.064 484.052 207.395C483.383 205.723 483.3 204.051 483.801 202.38C483.634 201.878 483.216 201.544 482.547 201.377C482.046 201.209 481.711 200.875 481.544 200.373C482.046 198.367 482.046 197.281 481.544 197.114C481.21 196.779 480.876 196.361 480.541 195.86C480.541 195.024 480.792 194.522 481.293 194.355C481.795 194.021 482.213 193.603 482.547 193.101C482.547 191.43 482.296 190.092 481.795 189.089C482.798 187.083 483.383 185.913 483.55 185.579C483.885 185.077 483.885 184.408 483.55 183.572C483.717 182.569 483.801 181.733 483.801 181.065C483.968 180.396 484.052 179.644 484.052 178.808C483.55 176.969 483.55 175.966 484.052 175.799C484.553 175.632 484.721 175.13 484.553 174.294C484.219 173.96 483.467 173.291 482.296 172.288C482.296 171.118 482.129 170.282 481.795 169.78C481.461 169.112 481.293 168.192 481.293 167.022C481.962 165.518 482.213 164.514 482.046 164.013C481.879 163.344 481.962 162.759 482.296 162.258C482.129 161.756 481.879 161.338 481.544 161.004C481.21 160.669 480.959 160.252 480.792 159.75C480.959 158.413 481.461 157.242 482.296 156.239C481.962 155.069 482.046 154.15 482.547 153.481C483.049 152.645 483.383 151.726 483.55 150.723C483.55 149.887 483.467 149.218 483.3 148.716C483.132 148.048 483.216 147.295 483.55 146.46C483.383 145.958 483.132 145.54 482.798 145.206C482.464 144.704 482.213 144.203 482.046 143.701C482.046 142.364 481.962 141.612 481.795 141.444C481.628 141.277 481.461 141.026 481.293 140.692C481.293 139.856 481.461 139.355 481.795 139.188C482.129 138.853 482.464 138.519 482.798 138.184C481.962 136.178 481.628 135.092 481.795 134.925C481.628 133.086 481.879 131.999 482.547 131.665C483.383 131.33 483.968 130.829 484.303 130.16C483.801 129.826 483.216 129.491 482.547 129.157C482.046 128.823 481.628 128.488 481.293 128.154C481.293 127.318 481.377 126.649 481.544 126.148C481.879 125.646 482.213 125.145 482.547 124.643C482.714 120.798 482.129 118.374 480.792 117.371C480.625 116.702 480.625 116.201 480.792 115.867C480.959 115.365 481.043 114.696 481.043 113.861C479.705 112.022 479.789 109.932 481.293 107.591C480.29 105.92 479.872 105 480.04 104.833C480.374 104.499 480.708 104.164 481.043 103.83C480.876 102.994 480.792 102.325 480.792 101.824C480.959 101.322 481.21 100.654 481.544 99.8178C481.377 98.1461 481.21 96.8923 481.043 96.0564C480.876 95.2205 480.792 94.3847 480.792 93.5488C481.461 92.8801 482.046 91.877 482.547 90.5396C482.046 88.7007 481.879 87.2797 482.046 86.2767C482.38 85.1065 482.38 83.9362 482.046 82.766C481.043 82.0973 480.29 81.0943 479.789 79.7569C479.287 78.0851 478.953 77.1657 478.786 76.9985C477.783 74.9924 476.78 73.9057 475.777 73.7386C474.774 73.4042 474.105 72.8191 473.771 71.9832C473.938 70.3115 473.603 69.4756 472.768 69.4756C471.932 69.3084 471.347 68.8905 471.012 68.2218C470.845 66.2157 470.427 65.2127 469.758 65.2127C469.09 65.0455 468.421 64.8783 467.752 64.7111C467.585 64.2096 467.084 63.5409 466.248 62.705C465.412 61.8692 464.827 61.284 464.492 60.9497C467.167 60.1138 468.505 59.8631 468.505 60.1974C468.505 60.5318 469.257 60.4482 470.761 59.9466C470.929 60.1138 471.514 60.1974 472.517 60.1974C473.687 60.0302 474.356 60.0302 474.523 60.1974C475.693 60.6989 476.362 60.8661 476.529 60.6989C476.696 60.5318 476.947 60.4482 477.281 60.4482C479.455 60.6153 480.458 60.3646 480.29 59.6959C480.625 59.3615 481.043 59.1944 481.544 59.1944C482.213 59.1944 482.882 59.1108 483.55 58.9436C484.888 58.4421 486.142 58.1913 487.312 58.1913C487.646 58.5257 487.73 59.0272 487.562 59.6959C487.562 60.3646 487.562 60.9497 487.562 61.4512C488.566 61.1169 489.234 60.6153 489.569 59.9466C490.07 59.2779 490.822 58.86 491.825 58.6928C492.661 58.86 493.581 58.7764 494.584 58.4421C495.587 58.1077 496.423 58.3585 497.091 59.1944C499.432 58.86 501.605 58.86 503.611 59.1944C504.447 58.86 505.199 58.5257 505.868 58.1913C506.704 57.857 507.54 57.9405 508.376 58.4421C509.044 59.4451 509.546 59.9466 509.88 59.9466C510.215 59.9466 510.465 60.1138 510.633 60.4482C510.465 61.9527 510.716 63.2066 511.385 64.2096C511.385 65.547 511.134 66.5501 510.633 67.2188C510.131 67.8874 509.964 68.8905 510.131 70.2279C510.967 71.8996 511.552 73.0699 511.886 73.7386C511.552 74.7416 511.218 75.7447 510.883 76.7477C510.716 77.5836 510.382 78.3359 509.88 79.0046C510.549 81.6794 510.549 83.5183 509.88 84.5213C510.883 86.0259 511.218 87.8648 510.883 90.0381C510.716 92.0442 510.967 93.9667 511.636 95.8056C511.468 97.4774 511.468 98.4804 511.636 98.8148C511.803 98.982 511.97 99.2327 512.137 99.5671C512.137 101.74 512.221 103.078 512.388 103.579C512.722 103.914 512.806 104.499 512.639 105.335C512.472 107.675 512.388 109.263 512.388 110.099C511.719 111.436 511.552 112.857 511.886 114.362C512.221 115.867 512.304 117.538 512.137 119.377C511.803 120.715 511.719 121.551 511.886 121.885C512.054 122.219 512.221 122.554 512.388 122.888C512.221 123.389 512.137 123.975 512.137 124.643C512.304 125.145 512.221 125.563 511.886 125.897C511.719 127.235 511.719 128.572 511.886 129.909C512.221 131.08 512.388 132.166 512.388 133.169C511.719 134.841 511.468 135.76 511.636 135.928C511.97 135.928 512.221 136.095 512.388 136.429C512.722 137.767 512.722 139.188 512.388 140.692C512.555 141.528 512.722 142.28 512.889 142.949C513.057 143.45 513.14 144.203 513.14 145.206C513.14 146.042 512.973 146.878 512.639 147.713C512.472 148.549 512.388 149.385 512.388 150.221C512.388 151.057 512.472 151.976 512.639 152.979C512.806 153.815 512.806 154.651 512.639 155.487C512.639 156.323 512.472 157.075 512.137 157.744C511.97 158.245 511.719 158.914 511.385 159.75C511.719 160.419 511.886 161.171 511.886 162.007C511.886 162.843 512.054 163.511 512.388 164.013C512.555 165.35 512.722 166.186 512.889 166.521C513.224 166.855 513.307 167.273 513.14 167.774C513.14 168.276 512.973 168.777 512.639 169.279C512.472 169.613 512.388 170.031 512.388 170.533C513.057 172.539 513.307 173.793 513.14 174.294C512.973 174.796 512.806 175.297 512.639 175.799C512.806 176.635 512.889 177.554 512.889 178.557C512.889 179.393 512.722 180.229 512.388 181.065C512.555 181.901 512.639 182.737 512.639 183.572C512.639 184.408 512.472 185.161 512.137 185.829C512.639 187.167 512.889 188.588 512.889 190.092C512.722 190.594 512.472 191.095 512.137 191.597C511.803 192.098 511.636 192.767 511.636 193.603C511.803 195.776 511.803 197.114 511.636 197.615C511.636 198.117 511.636 198.785 511.636 199.621C511.636 200.457 511.803 201.544 512.137 202.881C512.137 203.55 512.054 204.218 511.886 204.887C511.886 205.389 511.97 205.89 512.137 206.392C512.137 207.06 512.221 207.729 512.388 208.398C512.555 209.067 512.806 209.819 513.14 210.655C513.307 211.323 513.307 211.992 513.14 212.661C513.14 213.162 513.14 213.747 513.14 214.416C513.475 215.252 513.725 216.255 513.893 217.425C514.06 218.428 514.561 219.181 515.397 219.682C516.4 219.515 517.236 219.181 517.905 218.679C518.741 218.01 519.827 217.843 521.165 218.178C522.001 217.843 523.004 217.342 524.174 216.673C525.511 216.004 526.765 215.754 527.935 215.921C528.938 217.091 530.276 217.509 531.947 217.175C533.786 216.673 535.207 216.589 536.21 216.924C537.046 216.757 537.631 216.422 537.966 215.921C538.3 215.252 538.969 215.085 539.972 215.419C540.306 215.921 540.64 216.506 540.975 217.175C541.476 217.676 541.56 218.261 541.226 218.93C541.393 218.93 541.894 218.93 542.73 218.93C543.566 218.763 544.402 218.679 545.238 218.679C546.074 218.679 546.826 218.763 547.495 218.93C548.331 218.93 548.748 219.097 548.748 219.431C549.25 219.097 549.668 218.846 550.002 218.679C550.337 218.345 550.838 218.094 551.507 217.927C552.008 218.094 552.677 217.927 553.513 217.425C554.349 216.757 555.185 216.171 556.021 215.67C556.856 215.001 557.692 214.5 558.528 214.165C559.531 213.664 560.284 213.58 560.785 213.915C561.287 213.58 561.705 213.079 562.039 212.41C562.373 211.741 562.875 211.574 563.543 211.909C564.379 212.41 564.964 212.494 565.299 212.159C565.8 211.658 566.469 211.407 567.305 211.407C568.141 211.073 568.726 210.655 569.06 210.153C569.562 209.485 570.147 208.899 570.816 208.398C570.983 206.726 571.568 205.556 572.571 204.887C574.577 204.553 575.664 204.051 575.831 203.383C576.165 202.714 576.165 202.129 575.831 201.627C576.667 200.791 577.085 199.705 577.085 198.367C577.586 197.532 578.589 197.448 580.094 198.117C580.762 197.782 581.18 197.364 581.348 196.863C581.682 196.194 582.016 195.442 582.351 194.606C583.186 193.77 583.772 192.767 584.106 191.597C584.44 190.427 585.193 189.674 586.363 189.34ZM694.191 106.087C694.191 107.09 694.358 107.926 694.692 108.595C695.026 109.096 695.026 109.848 694.692 110.851C694.859 111.52 695.11 112.105 695.444 112.607C695.779 112.941 695.862 113.359 695.695 113.861C694.859 115.699 694.525 116.953 694.692 117.622C694.859 118.123 694.859 118.876 694.692 119.879C694.358 120.38 694.023 121.133 693.689 122.136C693.522 123.139 693.605 124.058 693.94 124.894C693.773 125.563 693.605 126.148 693.438 126.649C693.271 127.151 693.187 127.82 693.187 128.655C694.358 132.166 693.773 134.674 691.432 136.178C690.931 137.683 690.68 139.271 690.68 140.943C690.346 141.612 689.76 141.862 688.925 141.695C688.089 141.528 687.42 141.612 686.918 141.946C687.086 142.782 687.169 143.952 687.169 145.457C687.002 146.794 686.501 147.797 685.665 148.466C684.996 148.967 684.494 149.887 684.16 151.224C680.984 153.23 678.225 154.986 675.885 156.49C674.882 160.001 672.792 162.508 669.616 164.013C667.443 164.18 666.356 164.598 666.356 165.267C665.52 165.601 664.768 165.852 664.099 166.019C663.598 166.019 662.929 166.186 662.093 166.521C660.087 166.019 658.917 166.019 658.582 166.521C658.415 167.022 658.081 167.44 657.579 167.774C655.74 168.109 654.236 168.36 653.066 168.527C652.062 168.694 651.143 168.945 650.307 169.279C649.304 169.112 648.552 168.777 648.05 168.276C647.716 167.607 647.214 167.106 646.546 166.771C645.71 166.939 645.125 167.273 644.79 167.774C644.456 168.109 643.955 168.443 643.286 168.777C642.45 168.777 641.614 168.861 640.778 169.028C639.942 169.028 639.106 169.028 638.271 169.028C637.769 168.694 637.184 168.443 636.515 168.276C636.014 167.942 635.512 167.607 635.011 167.273C633.339 167.774 632.252 168.276 631.751 168.777C631.416 169.112 630.831 169.279 629.995 169.279C628.324 168.945 626.568 168.777 624.729 168.777C622.89 168.777 621.302 169.112 619.965 169.78C620.634 170.616 620.801 171.703 620.466 173.04L619.213 176.551C619.714 177.888 619.965 178.892 619.965 179.56C619.965 180.062 619.965 180.563 619.965 181.065C620.801 183.238 620.884 184.826 620.216 185.829C619.714 186.665 619.296 187.585 618.962 188.588C618.628 188.922 618.21 189.34 617.708 189.841C617.374 190.176 617.29 190.761 617.457 191.597C617.792 191.931 618.293 192.098 618.962 192.098C619.798 192.098 620.383 192.349 620.717 192.851C621.052 194.355 620.884 195.693 620.216 196.863C619.714 197.866 619.463 199.203 619.463 200.875C619.631 202.045 619.881 203.299 620.216 204.636C620.55 205.974 620.801 207.311 620.968 208.649C620.634 209.317 620.216 209.986 619.714 210.655C619.213 211.156 618.795 211.658 618.46 212.159C618.126 212.661 618.126 213.162 618.46 213.664C618.795 213.998 618.962 214.416 618.962 214.918C618.46 217.592 618.544 219.431 619.213 220.434C620.049 221.438 620.634 222.608 620.968 223.945C620.801 224.447 620.634 224.865 620.466 225.199C620.466 225.533 620.383 226.035 620.216 226.704C620.049 227.205 620.049 227.707 620.216 228.208C620.55 228.71 620.55 229.128 620.216 229.462C618.544 230.799 618.293 232.22 619.463 233.725C620.299 234.895 620.717 235.731 620.717 236.232C620.884 236.567 620.968 236.901 620.968 237.236C620.634 239.409 620.55 240.83 620.717 241.498C619.38 242.669 618.46 243.421 617.959 243.755C617.624 244.257 617.29 244.675 616.956 245.009C616.454 247.182 615.535 248.185 614.197 248.018C612.86 248.018 611.857 248.353 611.188 249.021C611.69 251.362 611.69 252.616 611.188 252.783C610.687 253.117 610.269 253.535 609.934 254.037C609.6 257.547 608.597 259.721 606.925 260.556C605.254 261.392 603.916 262.73 602.913 264.569C602.077 265.572 601.826 266.157 602.161 266.324C602.495 266.658 602.662 267.076 602.662 267.578C602.662 268.748 602.328 269.417 601.659 269.584C600.991 269.751 600.238 270.002 599.402 270.336C598.901 270.67 598.567 271.172 598.399 271.841C598.399 272.509 598.316 273.178 598.149 273.847C597.814 274.348 597.48 274.85 597.146 275.351C596.811 275.853 596.477 276.354 596.143 276.856C595.975 277.357 595.892 278.026 595.892 278.862C595.892 279.698 595.892 280.534 595.892 281.37C595.39 283.376 595.056 284.546 594.889 284.88C594.889 285.382 594.972 285.8 595.139 286.134C594.972 287.806 595.056 288.893 595.39 289.394C595.725 290.063 595.975 290.815 596.143 291.651C595.474 292.988 594.722 293.239 593.886 292.403C593.05 291.735 592.381 291.066 591.88 290.397C591.545 290.731 591.462 291.149 591.629 291.651C591.963 292.32 591.963 292.821 591.629 293.155C589.623 291.818 588.452 290.397 588.118 288.893C587.951 287.555 587.366 286.552 586.363 285.883C586.196 284.212 586.196 283.209 586.363 282.874C586.697 282.707 586.948 282.456 587.115 282.122C586.781 281.286 586.697 280.199 586.864 278.862C586.53 278.026 586.196 277.19 585.861 276.354C585.694 275.519 585.611 274.515 585.611 273.345C586.279 271.172 586.614 269.751 586.614 269.082C586.781 268.414 587.032 267.912 587.366 267.578C587.7 267.411 588.035 267.16 588.369 266.825C588.202 266.157 587.951 265.488 587.617 264.819C587.449 264.318 587.533 263.816 587.867 263.315C588.536 262.813 589.121 262.562 589.623 262.562C590.291 262.562 590.793 262.145 591.127 261.309C590.96 260.807 590.626 260.473 590.124 260.306C589.623 260.138 589.288 259.804 589.121 259.303C588.452 257.129 587.784 255.708 587.115 255.04C586.614 254.371 586.279 253.451 586.112 252.281C587.115 250.61 587.784 249.523 588.118 249.021C588.452 248.52 588.62 247.768 588.62 246.764C588.285 246.43 587.784 246.179 587.115 246.012C586.614 246.012 586.279 245.761 586.112 245.26C586.279 244.591 586.697 243.755 587.366 242.752C587.366 240.746 587.533 239.66 587.867 239.492C587.366 237.152 587.115 234.895 587.115 232.722C587.115 230.381 587.449 229.211 588.118 229.211C587.282 227.372 586.948 226.286 587.115 225.951C587.449 225.45 587.784 224.948 588.118 224.447C588.954 224.279 589.288 223.862 589.121 223.193C589.121 222.524 589.288 221.772 589.623 220.936C589.623 219.097 589.372 217.425 588.87 215.921C588.369 214.416 588.285 212.744 588.62 210.905C588.954 210.07 589.121 208.983 589.121 207.646C589.288 206.308 589.121 205.138 588.62 204.135C589.121 202.965 589.372 201.878 589.372 200.875C588.703 199.538 588.285 198.451 588.118 197.615C588.452 196.946 588.62 196.111 588.62 195.107C588.787 194.104 588.787 193.101 588.62 192.098C589.456 189.591 589.706 188.086 589.372 187.585C589.038 186.916 588.703 186.247 588.369 185.579C588.703 184.743 589.038 183.823 589.372 182.82C589.873 181.817 590.041 180.898 589.873 180.062C590.375 177.387 590.375 175.799 589.873 175.297C589.372 174.796 588.87 174.211 588.369 173.542C588.536 172.372 588.62 171.201 588.62 170.031C588.62 168.694 588.787 167.524 589.121 166.521C588.62 164.849 588.369 163.01 588.369 161.004C589.706 157.66 590.626 155.153 591.127 153.481C590.793 152.812 590.208 152.394 589.372 152.227C588.536 151.893 587.951 151.224 587.617 150.221C587.951 149.385 588.285 148.549 588.62 147.713C589.121 146.71 589.205 145.707 588.87 144.704C589.539 143.2 589.79 142.447 589.623 142.447C589.623 142.28 589.623 142.029 589.623 141.695C589.957 139.689 589.873 138.268 589.372 137.432C589.038 136.596 588.62 135.844 588.118 135.175C588.452 133.671 588.87 132.333 589.372 131.163C589.873 129.993 590.291 128.655 590.626 127.151C590.626 125.312 590.542 123.473 590.375 121.634C590.208 119.795 589.957 117.873 589.623 115.867C589.623 113.861 589.706 112.607 589.873 112.105C590.208 111.436 590.208 110.768 589.873 110.099C589.873 108.595 589.623 107.675 589.121 107.341C588.787 107.006 588.452 106.505 588.118 105.836C588.118 105 588.285 104.332 588.62 103.83C588.954 103.329 589.205 102.743 589.372 102.075C589.539 101.239 589.456 100.57 589.121 100.069C588.954 99.3999 589.038 98.7312 589.372 98.0625C588.703 97.0595 588.202 95.8892 587.867 94.5518C587.7 92.7129 587.7 91.4591 587.867 90.7904C588.202 90.1217 588.452 89.3694 588.62 88.5335C588.62 87.6977 588.536 86.9454 588.369 86.2767C588.369 85.608 588.452 84.9393 588.62 84.2706C588.62 82.9332 588.452 81.6794 588.118 80.5091C588.62 78.3359 588.703 77.1657 588.369 76.9985C588.035 76.8313 587.784 76.4134 587.617 75.7447C587.449 74.0729 587.199 73.1535 586.864 72.9863C586.53 72.8191 586.196 72.5683 585.861 72.234C584.524 71.0638 583.688 70.5622 583.354 70.7294C583.019 70.7294 582.518 70.7294 581.849 70.7294C580.846 69.5592 580.428 68.8905 580.595 68.7233C580.93 68.389 581.097 68.0546 581.097 67.7203C580.595 67.0516 579.425 66.5501 577.586 66.2157C576.917 65.8814 576.249 65.7142 575.58 65.7142C574.911 65.547 574.326 65.2962 573.825 64.9619C572.32 63.7917 571.317 63.3737 570.816 63.7081C570.314 63.8753 569.729 63.7917 569.06 63.4573C568.893 62.9558 568.726 62.3707 568.559 61.702C568.392 61.0333 568.392 60.4482 568.559 59.9466C568.893 59.2779 569.478 59.1944 570.314 59.6959C571.15 60.0302 571.902 60.1138 572.571 59.9466C573.741 59.6123 574.995 59.2779 576.332 58.9436C577.837 58.6092 579.007 58.9436 579.843 59.9466C580.177 59.6123 580.846 59.3615 581.849 59.1944C582.852 58.86 583.521 59.1108 583.855 59.9466C584.524 59.6123 585.443 59.3615 586.614 59.1944C587.784 59.0272 588.787 59.1108 589.623 59.4451C591.796 59.2779 593.05 59.2779 593.384 59.4451C593.718 59.6123 594.053 59.7795 594.387 59.9466C595.39 59.9466 596.31 59.8631 597.146 59.6959C598.149 59.5287 599.152 59.2779 600.155 58.9436C601.158 59.6123 601.994 60.0302 602.662 60.1974C605.504 59.8631 607.427 59.4451 608.43 58.9436C609.433 58.2749 610.77 58.0241 612.442 58.1913C613.278 58.5257 613.863 58.9436 614.197 59.4451C614.699 59.9466 615.117 60.4482 615.451 60.9497C617.959 60.6153 619.631 60.281 620.466 59.9466C621.302 59.4451 622.222 59.1108 623.225 58.9436C625.231 58.7764 626.819 58.5257 627.989 58.1913C629.327 57.857 630.413 58.3585 631.249 59.6959C632.252 59.6959 633.423 59.8631 634.76 60.1974C635.261 59.8631 635.847 59.6959 636.515 59.6959C637.351 59.6959 638.187 59.6123 639.023 59.4451C639.524 59.4451 639.942 59.3615 640.277 59.1944C640.778 59.0272 641.28 59.0272 641.781 59.1944C643.787 59.6959 645.376 59.8631 646.546 59.6959C647.716 59.3615 648.635 59.6123 649.304 60.4482C650.14 60.4482 650.809 60.6153 651.31 60.9497C651.812 61.1169 652.48 61.284 653.316 61.4512C654.487 61.1169 655.49 60.6989 656.325 60.1974C657.161 59.6959 658.081 59.2779 659.084 58.9436C660.923 59.6123 661.759 60.1974 661.591 60.6989C661.591 61.2005 661.675 61.6184 661.842 61.9527C662.344 61.9527 663.012 61.9527 663.848 61.9527C664.851 61.9527 665.604 62.1199 666.105 62.4543C667.443 64.126 668.195 64.8783 668.362 64.7111C668.696 64.3768 669.114 64.2932 669.616 64.4604C670.285 64.7947 670.619 65.3798 670.619 66.2157C670.786 67.0516 670.953 67.7203 671.12 68.2218C672.123 69.0577 673.294 69.5592 674.631 69.7264C675.968 71.0638 676.972 71.8996 677.64 72.234C678.309 72.4012 678.978 72.6519 679.646 72.9863C681.151 74.1565 682.154 74.9924 682.655 75.4939C683.324 75.8283 683.993 76.2462 684.662 76.7477C684.662 77.4164 684.829 77.9179 685.163 78.2523C685.665 78.4195 686.083 78.6702 686.417 79.0046C685.915 80.1748 685.915 80.9271 686.417 81.2614C687.086 81.4286 687.587 81.8465 687.921 82.5152C688.423 84.6885 689.008 86.1931 689.677 87.029C690.346 87.6977 690.513 88.6171 690.178 89.7873C690.513 91.4591 691.265 92.7129 692.435 93.5488C693.773 94.3847 694.608 95.5549 694.943 97.0595C694.441 99.2327 694.441 100.821 694.943 101.824C695.444 102.66 695.612 103.496 695.444 104.332L694.191 106.087ZM664.851 119.879C665.019 118.541 665.019 117.538 664.851 116.87C664.851 116.034 664.684 115.198 664.35 114.362C664.183 113.025 663.932 112.022 663.598 111.353C663.43 110.517 663.18 109.681 662.845 108.845C663.18 108.009 663.263 107.341 663.096 106.839C663.096 106.17 663.096 105.418 663.096 104.582C663.263 102.911 663.18 101.991 662.845 101.824C662.678 101.49 662.511 101.155 662.344 100.821C661.006 98.982 660.254 97.7282 660.087 97.0595C659.92 96.3908 659.836 95.6385 659.836 94.8026C659.335 93.9667 658.499 93.5488 657.329 93.5488C656.325 93.5488 655.657 93.1308 655.322 92.295C655.155 90.2889 654.821 89.0351 654.319 88.5335C653.818 88.032 653.567 87.2797 653.567 86.2767C652.397 86.611 651.477 86.611 650.809 86.2767C650.307 85.9423 649.722 85.608 649.053 85.2736C648.217 85.9423 647.298 86.1095 646.295 85.7752C645.292 85.2736 644.289 85.2736 643.286 85.7752C641.948 85.2736 640.945 85.1065 640.277 85.2736C639.608 85.2736 639.023 85.1065 638.521 84.7721C637.518 83.4347 636.682 82.9332 636.014 83.2675C635.345 83.6019 634.593 83.6019 633.757 83.2675C632.921 84.7721 632.419 85.608 632.252 85.7752C632.252 85.9423 632.085 86.1931 631.751 86.5274C629.076 85.3572 627.321 84.9393 626.485 85.2736C625.816 85.4408 624.98 85.6916 623.977 86.0259C621.971 85.3572 620.717 85.1065 620.216 85.2736C620.049 86.1095 619.965 86.8618 619.965 87.5305C620.132 88.1992 620.049 88.8679 619.714 89.5366C620.049 89.8709 620.466 90.2053 620.968 90.5396C621.47 90.874 621.804 91.3755 621.971 92.0442C621.804 92.8801 621.47 93.5488 620.968 94.0503C620.634 94.5518 620.299 95.2205 619.965 96.0564C620.634 96.7251 620.801 97.561 620.466 98.564C620.132 99.5671 619.798 100.403 619.463 101.072C619.965 102.075 619.798 102.994 618.962 103.83C619.296 104.666 619.631 105.418 619.965 106.087C620.466 106.756 620.717 107.675 620.717 108.845C620.55 109.681 620.299 110.433 619.965 111.102C619.631 111.604 619.38 112.272 619.213 113.108C620.216 114.613 620.634 115.532 620.466 115.867C620.299 116.201 620.132 116.535 619.965 116.87C620.132 117.371 620.383 117.789 620.717 118.123C621.052 118.458 621.386 118.876 621.72 119.377C622.055 120.38 622.055 121.467 621.72 122.637C621.386 123.64 621.135 124.643 620.968 125.646C620.968 126.148 620.968 126.733 620.968 127.402C621.135 127.903 621.135 128.321 620.968 128.655C620.466 130.327 620.383 131.33 620.717 131.665C621.052 131.999 621.302 132.501 621.47 133.169C620.801 134.507 620.299 135.426 619.965 135.928C619.631 136.262 619.296 136.68 618.962 137.181C619.296 137.516 619.631 137.85 619.965 138.184C620.466 138.519 620.884 138.853 621.219 139.188C621.052 140.023 621.052 140.608 621.219 140.943C621.553 141.277 621.804 141.695 621.971 142.197C622.138 143.701 622.473 144.537 622.974 144.704C623.476 144.704 624.144 144.621 624.98 144.454C626.986 143.45 627.989 143.283 627.989 143.952C627.989 144.621 628.407 145.039 629.243 145.206C630.079 145.039 630.748 144.704 631.249 144.203C631.751 143.534 632.587 143.2 633.757 143.2C635.094 144.036 636.014 144.37 636.515 144.203C637.017 144.036 637.685 143.952 638.521 143.952C639.19 143.618 639.775 143.2 640.277 142.698C640.945 142.197 641.781 141.946 642.784 141.946C645.125 142.782 646.88 142.949 648.05 142.447C649.388 141.946 650.725 141.444 652.062 140.943C652.397 140.274 652.731 139.689 653.066 139.188C653.567 138.519 654.152 138.017 654.821 137.683C655.155 137.349 655.657 137.265 656.325 137.432C656.994 137.599 657.496 137.599 657.83 137.432C658.164 136.596 658.415 135.76 658.582 134.925C658.749 134.089 659.084 133.336 659.585 132.668C660.756 132.501 661.759 131.832 662.595 130.662C661.759 128.655 661.926 126.649 663.096 124.643C662.929 123.807 662.929 123.139 663.096 122.637C663.43 122.136 663.681 121.551 663.848 120.882L664.851 119.879Z" fill="#E97A26"/>
</svg>
